<svg id="svg" version="1.1" xmlns="http://www.w3.org/2000/svg" xmlns:xlink="http://www.w3.org/1999/xlink" width="400" height="88.54166666666667" viewBox="0, 0, 400,88.54166666666667"><g id="svgg"><path id="path0" d="M180.322 5.958 L 179.917 6.417 179.871 43.250 C 179.822 83.496,179.769 81.143,180.727 81.400 C 180.923 81.452,184.705 81.496,189.133 81.498 L 197.182 81.500 197.591 81.091 L 198.000 80.682 198.000 43.530 L 198.000 6.378 197.655 5.939 L 197.309 5.500 189.018 5.500 L 180.727 5.500 180.322 5.958 M350.030 5.918 L 349.667 6.336 349.667 21.751 C 349.667 31.893,349.610 37.167,349.500 37.167 C 349.409 37.167,348.977 36.910,348.541 36.597 C 348.104 36.283,347.523 35.972,347.249 35.904 C 346.974 35.837,346.712 35.731,346.667 35.668 C 346.577 35.546,344.776 34.869,343.417 34.446 C 339.543 33.241,330.747 33.566,328.750 34.988 C 328.658 35.053,328.246 35.211,327.833 35.338 C 327.421 35.465,327.046 35.610,327.000 35.660 C 326.954 35.709,326.654 35.882,326.333 36.043 C 324.857 36.786,323.916 37.423,322.345 38.743 C 320.793 40.048,318.560 42.590,317.786 43.935 C 317.674 44.128,317.393 44.578,317.160 44.935 C 316.927 45.291,316.594 45.921,316.420 46.333 C 316.246 46.746,316.013 47.196,315.902 47.333 C 315.791 47.471,315.602 47.921,315.483 48.333 C 315.364 48.746,315.224 49.121,315.172 49.167 C 314.960 49.354,314.167 52.647,314.167 53.342 C 314.167 53.575,314.074 53.859,313.961 53.972 C 313.669 54.264,313.673 62.363,313.965 62.461 C 314.076 62.498,314.167 62.765,314.167 63.056 C 314.167 63.923,314.699 66.147,315.170 67.250 C 315.248 67.433,315.366 67.771,315.431 68.000 C 315.690 68.914,317.298 71.989,317.757 72.448 C 317.891 72.581,318.000 72.791,318.000 72.915 C 318.000 73.038,318.056 73.164,318.125 73.194 C 318.194 73.225,318.469 73.550,318.738 73.917 C 319.347 74.750,319.416 74.827,320.821 76.250 C 322.305 77.754,322.843 78.227,323.710 78.790 C 324.098 79.043,324.511 79.338,324.626 79.447 C 324.741 79.556,324.985 79.692,325.168 79.750 C 325.350 79.808,325.500 79.926,325.500 80.011 C 325.500 80.097,325.641 80.167,325.813 80.167 C 325.985 80.167,326.209 80.267,326.311 80.389 C 326.412 80.512,326.815 80.715,327.206 80.841 C 327.597 80.966,327.954 81.116,328.000 81.174 C 328.046 81.231,328.383 81.360,328.750 81.461 C 329.117 81.561,329.754 81.758,330.167 81.899 C 333.564 83.059,339.936 83.059,343.333 81.899 C 343.746 81.758,344.383 81.561,344.750 81.461 C 345.117 81.360,345.454 81.234,345.500 81.179 C 345.546 81.125,346.015 80.866,346.542 80.603 C 347.069 80.341,347.500 80.069,347.500 79.998 C 347.500 79.927,347.700 79.819,347.943 79.758 C 348.187 79.697,348.656 79.424,348.985 79.152 L 349.583 78.658 349.629 79.370 C 349.681 80.178,349.934 80.782,350.399 81.208 C 350.693 81.478,351.333 81.500,358.817 81.497 L 366.917 81.494 367.333 81.055 L 367.750 80.616 367.750 43.500 L 367.750 6.384 367.333 5.945 L 366.917 5.506 358.655 5.503 L 350.393 5.500 350.030 5.918 M196.500 43.458 L 196.500 80.083 188.917 80.038 L 181.333 79.993 181.333 43.677 C 181.333 23.703,181.379 7.242,181.434 7.097 C 181.525 6.862,182.349 6.833,189.018 6.833 L 196.500 6.833 196.500 43.458 M366.292 43.458 L 366.334 80.000 358.834 80.000 L 351.333 80.000 351.333 77.583 C 351.333 74.892,351.328 74.882,350.372 75.875 C 349.375 76.910,349.035 77.199,347.833 78.028 C 346.463 78.974,343.678 80.333,343.110 80.333 C 342.968 80.333,342.813 80.397,342.765 80.476 C 342.717 80.554,342.094 80.710,341.380 80.824 C 340.667 80.937,339.676 81.098,339.178 81.182 C 337.252 81.504,330.898 80.971,330.694 80.470 C 330.664 80.395,330.476 80.333,330.278 80.332 C 330.079 80.332,329.702 80.219,329.439 80.082 C 329.177 79.945,328.883 79.833,328.788 79.833 C 328.497 79.833,325.500 78.308,325.500 78.160 C 325.500 78.085,325.350 77.975,325.168 77.917 C 324.985 77.859,324.741 77.723,324.626 77.614 C 324.511 77.506,324.041 77.124,323.583 76.767 C 321.426 75.084,318.794 71.758,317.571 69.167 C 316.966 67.886,316.797 67.472,316.417 66.346 C 316.188 65.665,316.000 64.938,316.000 64.731 C 316.000 64.523,315.936 64.314,315.858 64.265 C 315.148 63.827,315.138 52.991,315.847 52.258 C 315.931 52.171,316.000 51.977,316.000 51.827 C 316.000 51.492,316.826 48.814,317.000 48.583 C 317.069 48.492,317.179 48.243,317.244 48.031 C 317.642 46.734,320.115 43.116,321.774 41.403 C 323.313 39.814,326.126 37.667,326.670 37.667 C 326.760 37.667,326.833 37.592,326.833 37.500 C 326.833 37.408,326.906 37.333,326.995 37.333 C 327.084 37.333,327.590 37.142,328.120 36.907 C 328.650 36.673,329.233 36.417,329.417 36.338 C 332.226 35.137,338.560 34.844,342.250 35.745 C 343.350 36.014,344.275 36.294,344.306 36.367 C 344.336 36.440,344.483 36.500,344.633 36.500 C 345.417 36.500,348.989 38.581,350.370 39.842 L 350.917 40.342 350.959 23.812 C 350.990 11.860,351.054 7.220,351.189 7.056 C 351.343 6.871,352.716 6.838,358.813 6.873 L 366.250 6.917 366.292 43.458 M147.750 7.424 C 147.017 7.546,145.817 7.727,145.083 7.826 C 144.350 7.925,143.600 8.073,143.417 8.153 C 143.233 8.234,142.333 8.511,141.417 8.768 C 140.500 9.025,139.712 9.283,139.667 9.341 C 139.621 9.400,139.340 9.495,139.042 9.553 C 138.555 9.648,138.030 9.853,136.417 10.578 C 135.016 11.209,134.238 11.602,134.048 11.778 C 133.932 11.885,133.611 12.022,133.335 12.083 C 133.059 12.144,132.833 12.254,132.833 12.328 C 132.833 12.403,132.552 12.585,132.208 12.733 C 131.605 12.992,131.006 13.327,130.833 13.500 C 130.787 13.547,130.412 13.808,130.000 14.082 C 128.785 14.888,126.772 16.390,126.480 16.707 C 126.332 16.868,126.158 17.000,126.093 17.000 C 125.826 17.000,121.637 21.370,120.742 22.583 C 120.471 22.950,120.081 23.437,119.875 23.665 C 119.669 23.893,119.500 24.156,119.500 24.248 C 119.500 24.341,119.312 24.635,119.083 24.901 C 118.854 25.167,118.667 25.477,118.667 25.589 C 118.667 25.701,118.556 25.885,118.420 25.997 C 118.285 26.110,118.072 26.400,117.947 26.643 C 117.822 26.885,117.371 27.745,116.943 28.555 C 116.516 29.364,116.167 30.133,116.167 30.263 C 116.167 30.393,116.107 30.500,116.033 30.500 C 115.960 30.500,115.802 30.781,115.681 31.125 C 115.481 31.694,115.214 32.353,114.819 33.250 C 114.739 33.433,114.601 33.883,114.512 34.250 C 114.424 34.617,114.245 35.254,114.113 35.667 C 112.328 41.263,112.429 49.325,114.361 55.500 C 114.728 56.671,114.751 56.733,115.399 58.303 C 115.638 58.882,115.833 59.457,115.833 59.580 C 115.833 59.704,115.890 59.831,115.958 59.861 C 116.125 59.935,117.000 61.699,117.000 61.961 C 117.000 62.074,117.058 62.167,117.128 62.167 C 117.241 62.167,117.639 62.804,118.637 64.582 C 118.791 64.857,119.036 65.194,119.182 65.332 C 119.328 65.470,119.478 65.667,119.516 65.769 C 119.553 65.871,119.771 66.195,120.000 66.490 C 120.229 66.784,120.715 67.413,121.079 67.888 C 121.915 68.976,125.863 72.950,126.750 73.596 C 127.117 73.863,127.454 74.119,127.500 74.166 C 127.849 74.519,129.171 75.500,129.297 75.500 C 129.384 75.500,129.709 75.723,130.019 75.995 C 130.329 76.268,130.790 76.577,131.042 76.682 C 131.294 76.788,131.500 76.934,131.500 77.007 C 131.500 77.080,131.724 77.189,131.998 77.250 C 132.272 77.310,132.541 77.431,132.595 77.520 C 132.650 77.608,133.157 77.909,133.722 78.189 C 134.288 78.469,135.087 78.875,135.500 79.092 C 135.912 79.308,136.550 79.571,136.917 79.676 C 137.283 79.782,137.621 79.916,137.667 79.976 C 137.770 80.109,138.651 80.445,139.750 80.769 C 140.208 80.904,140.733 81.082,140.917 81.164 C 141.100 81.247,141.512 81.359,141.833 81.414 C 142.154 81.469,142.979 81.656,143.667 81.830 C 148.681 83.097,156.058 83.099,162.333 81.834 C 163.204 81.658,164.273 81.465,164.708 81.405 C 165.144 81.345,165.500 81.229,165.500 81.148 C 165.500 81.066,165.663 81.000,165.863 81.000 C 166.416 81.000,168.637 80.240,168.833 79.984 C 168.879 79.924,169.150 79.825,169.436 79.763 C 169.721 79.701,170.734 79.252,171.686 78.765 C 174.272 77.442,174.864 77.112,175.230 76.792 C 175.413 76.631,175.659 76.500,175.776 76.500 C 175.893 76.500,176.078 76.331,176.188 76.125 C 176.298 75.919,176.499 75.668,176.635 75.568 C 176.924 75.355,176.825 73.803,176.516 73.700 C 176.416 73.666,176.333 73.556,176.333 73.454 C 176.333 73.303,173.516 67.552,173.008 66.667 C 172.930 66.529,172.245 65.142,171.486 63.583 C 169.841 60.203,169.616 59.870,168.886 59.733 C 168.216 59.608,167.763 59.809,165.842 61.088 C 165.425 61.366,164.746 61.729,164.333 61.895 C 163.921 62.061,163.358 62.292,163.083 62.408 C 162.260 62.755,161.415 63.000,161.044 63.000 C 160.852 63.000,160.669 63.064,160.639 63.142 C 160.421 63.697,153.816 64.196,151.500 63.831 C 150.996 63.752,149.890 63.596,149.042 63.484 C 148.194 63.372,147.500 63.217,147.500 63.140 C 147.500 63.063,147.374 63.000,147.220 63.000 C 146.292 63.000,142.112 61.092,141.230 60.266 C 141.123 60.165,140.797 59.896,140.507 59.667 C 139.812 59.118,138.001 57.333,137.997 57.193 C 137.996 57.133,137.808 56.907,137.580 56.691 C 137.353 56.475,137.167 56.202,137.167 56.084 C 137.167 55.966,137.054 55.826,136.917 55.773 C 136.779 55.720,136.667 55.562,136.667 55.422 C 136.667 55.282,136.597 55.167,136.512 55.167 C 136.427 55.167,136.249 54.960,136.117 54.708 C 135.985 54.456,135.598 53.726,135.257 53.085 C 134.590 51.831,134.173 50.760,134.169 50.292 C 134.168 50.131,134.103 50.000,134.025 50.000 C 133.740 50.000,133.437 47.349,133.444 44.917 C 133.452 42.460,133.742 40.000,134.023 40.000 C 134.102 40.000,134.167 39.858,134.167 39.684 C 134.167 39.326,135.003 37.297,135.533 36.367 C 135.727 36.028,135.969 35.600,136.071 35.417 C 136.381 34.861,137.229 33.609,137.583 33.187 C 138.221 32.425,140.466 30.167,140.585 30.167 C 140.651 30.167,141.065 29.903,141.505 29.580 C 141.945 29.257,142.536 28.912,142.819 28.813 C 143.102 28.715,143.333 28.572,143.333 28.497 C 143.333 28.422,143.553 28.312,143.822 28.253 C 144.090 28.194,144.393 28.046,144.494 27.924 C 144.595 27.802,145.012 27.653,145.422 27.591 C 145.832 27.530,146.167 27.409,146.167 27.323 C 146.167 27.237,146.322 27.167,146.511 27.167 C 146.700 27.167,146.989 27.095,147.153 27.007 C 147.584 26.776,149.811 26.334,150.542 26.333 C 150.885 26.333,151.167 26.258,151.167 26.167 C 151.167 26.061,152.361 26.000,154.417 26.000 C 156.472 26.000,157.667 26.061,157.667 26.167 C 157.667 26.258,157.910 26.335,158.208 26.336 C 158.506 26.338,159.313 26.492,160.000 26.679 C 160.688 26.866,161.456 27.061,161.708 27.112 C 161.960 27.163,162.167 27.263,162.167 27.334 C 162.167 27.405,162.448 27.512,162.792 27.573 C 163.331 27.668,164.296 28.052,165.167 28.520 C 165.304 28.594,165.754 28.826,166.167 29.035 C 166.579 29.245,167.037 29.561,167.184 29.738 C 167.656 30.305,169.434 30.328,169.688 29.770 C 169.797 29.530,169.944 29.333,170.014 29.333 C 170.083 29.333,170.189 29.109,170.250 28.835 C 170.310 28.561,170.423 28.297,170.502 28.249 C 170.667 28.147,171.500 26.434,171.500 26.197 C 171.500 26.111,171.605 25.954,171.734 25.847 C 171.862 25.740,172.018 25.451,172.080 25.203 C 172.142 24.956,172.244 24.715,172.306 24.668 C 172.490 24.530,176.338 16.769,176.336 16.542 C 176.334 16.427,176.396 16.333,176.472 16.333 C 176.703 16.333,176.950 15.279,176.826 14.819 C 176.701 14.352,176.180 13.667,175.951 13.667 C 175.873 13.667,175.705 13.573,175.577 13.458 C 175.152 13.077,174.921 12.919,174.422 12.667 C 174.150 12.529,173.812 12.304,173.671 12.167 C 173.530 12.029,172.891 11.662,172.249 11.352 C 171.608 11.041,170.884 10.685,170.641 10.560 C 170.398 10.435,170.112 10.333,170.007 10.333 C 169.901 10.333,169.500 10.190,169.116 10.015 C 168.731 9.840,168.117 9.642,167.750 9.574 C 167.383 9.507,167.046 9.405,167.000 9.347 C 166.898 9.219,164.142 8.486,163.333 8.373 C 163.012 8.327,162.712 8.238,162.667 8.174 C 162.621 8.109,161.908 7.969,161.083 7.861 C 160.258 7.754,158.796 7.555,157.833 7.420 C 155.618 7.108,149.628 7.111,147.750 7.424 M157.122 8.923 C 158.659 9.063,160.179 9.246,160.500 9.328 C 160.821 9.411,161.646 9.570,162.333 9.681 C 163.021 9.793,163.655 9.948,163.742 10.026 C 163.829 10.103,164.069 10.167,164.275 10.167 C 164.696 10.167,167.138 10.895,167.942 11.261 C 168.231 11.393,168.557 11.500,168.667 11.500 C 168.865 11.500,169.450 11.736,170.768 12.349 C 171.145 12.524,171.523 12.667,171.609 12.667 C 171.695 12.667,171.912 12.780,172.091 12.919 C 172.270 13.058,172.942 13.516,173.583 13.936 C 175.575 15.240,175.576 14.742,173.578 18.750 C 172.618 20.674,171.833 22.337,171.833 22.444 C 171.833 22.551,171.776 22.664,171.706 22.694 C 171.637 22.725,170.983 23.950,170.254 25.417 C 168.443 29.057,168.537 28.922,168.101 28.536 C 167.493 27.998,166.124 27.213,165.000 26.758 C 164.404 26.516,163.767 26.250,163.583 26.167 C 163.400 26.084,162.912 25.929,162.500 25.823 C 162.087 25.717,161.600 25.564,161.417 25.483 C 161.095 25.340,159.389 24.945,157.833 24.653 C 156.864 24.470,150.786 24.603,149.917 24.825 C 149.550 24.919,148.765 25.075,148.173 25.173 C 147.581 25.271,147.018 25.411,146.923 25.485 C 146.828 25.559,146.506 25.666,146.208 25.722 C 145.910 25.779,145.348 25.968,144.958 26.143 C 144.569 26.317,144.087 26.510,143.887 26.571 C 143.688 26.632,143.201 26.860,142.804 27.079 C 142.408 27.297,141.718 27.674,141.272 27.917 C 140.472 28.351,140.254 28.501,139.690 29.006 C 139.533 29.147,139.109 29.484,138.747 29.756 C 138.384 30.028,137.926 30.438,137.728 30.667 C 137.530 30.896,137.224 31.247,137.048 31.448 C 136.873 31.648,136.584 32.013,136.406 32.258 C 136.229 32.503,136.007 32.789,135.913 32.893 C 132.163 37.072,130.647 46.580,132.928 51.609 C 133.059 51.897,133.168 52.197,133.169 52.275 C 133.173 52.482,134.361 54.801,134.881 55.617 C 135.473 56.545,137.300 58.802,138.113 59.607 C 139.228 60.713,142.087 62.765,142.740 62.929 C 142.975 62.988,143.167 63.095,143.167 63.166 C 143.167 63.238,143.504 63.396,143.917 63.518 C 144.329 63.640,144.667 63.791,144.667 63.855 C 144.667 63.919,144.985 64.024,145.375 64.089 C 145.765 64.154,146.121 64.263,146.167 64.330 C 146.212 64.398,147.300 64.663,148.583 64.920 C 152.854 65.776,160.606 65.437,162.083 64.330 C 162.175 64.261,162.512 64.150,162.833 64.083 C 163.154 64.016,163.492 63.904,163.583 63.834 C 163.675 63.765,163.938 63.652,164.167 63.584 C 164.998 63.337,166.439 62.596,167.445 61.898 L 168.473 61.184 168.707 61.550 C 169.381 62.607,175.317 74.726,175.229 74.867 C 175.105 75.068,173.015 76.431,172.473 76.665 C 172.259 76.757,171.971 76.903,171.833 76.990 C 171.529 77.182,169.335 78.205,168.417 78.583 C 167.279 79.052,165.306 79.667,164.595 79.776 C 164.222 79.832,163.841 79.938,163.748 80.010 C 163.656 80.082,163.093 80.194,162.498 80.259 C 161.903 80.324,161.342 80.434,161.250 80.505 C 160.113 81.377,146.675 81.407,144.500 80.542 C 144.362 80.487,143.875 80.352,143.417 80.242 C 141.993 79.898,140.598 79.503,140.250 79.343 C 140.067 79.259,139.617 79.098,139.250 78.986 C 138.233 78.675,133.740 76.604,133.500 76.336 C 133.454 76.285,133.229 76.147,133.000 76.030 C 132.053 75.546,131.579 75.276,131.500 75.177 C 131.454 75.119,130.971 74.780,130.427 74.423 C 126.735 72.002,122.209 67.424,120.123 64.000 C 119.928 63.679,119.723 63.379,119.667 63.333 C 118.642 62.480,115.724 55.555,115.067 52.417 C 113.280 43.880,114.697 35.261,119.135 27.667 C 119.989 26.207,120.626 25.206,120.834 25.000 C 120.881 24.954,121.251 24.467,121.656 23.917 C 122.905 22.224,125.845 19.143,127.311 17.989 C 127.712 17.674,128.124 17.338,128.228 17.242 C 128.550 16.945,130.992 15.167,131.078 15.167 C 131.123 15.167,131.555 14.916,132.038 14.609 C 133.484 13.692,137.843 11.501,138.227 11.499 C 138.331 11.498,138.622 11.391,138.874 11.259 C 139.497 10.934,141.744 10.167,142.072 10.167 C 142.218 10.167,142.468 10.095,142.627 10.008 C 144.466 9.000,151.896 8.444,157.122 8.923 M60.583 33.608 C 58.767 33.797,56.667 34.309,55.250 34.910 C 54.975 35.027,54.506 35.225,54.208 35.352 C 53.910 35.478,53.667 35.638,53.667 35.707 C 53.667 35.777,53.542 35.833,53.391 35.833 C 53.239 35.833,52.869 36.021,52.569 36.250 C 52.268 36.479,51.948 36.667,51.858 36.667 C 51.768 36.667,51.669 36.723,51.639 36.792 C 51.608 36.860,51.340 37.088,51.042 37.297 L 50.500 37.677 50.500 36.827 C 50.500 34.801,50.646 34.833,41.380 34.834 C 32.827 34.834,32.743 34.844,32.463 35.949 C 32.389 36.242,32.348 46.455,32.373 58.644 L 32.417 80.805 32.817 81.153 C 33.211 81.495,33.346 81.500,41.443 81.500 L 49.669 81.500 50.043 81.070 L 50.417 80.640 50.500 66.778 C 50.575 54.281,50.611 52.859,50.862 52.333 C 51.015 52.012,51.189 51.581,51.248 51.375 C 51.307 51.169,51.426 51.000,51.511 51.000 C 51.597 51.000,51.667 50.919,51.667 50.821 C 51.667 50.722,51.886 50.422,52.154 50.154 C 52.422 49.886,52.722 49.667,52.821 49.667 C 52.919 49.667,53.000 49.601,53.000 49.520 C 53.000 49.312,55.012 48.833,55.889 48.833 C 56.803 48.833,59.000 49.317,59.000 49.518 C 59.000 49.600,59.104 49.667,59.230 49.667 C 59.522 49.667,60.833 50.966,60.833 51.256 C 60.833 51.375,60.896 51.497,60.973 51.528 C 61.050 51.558,61.312 52.207,61.556 52.969 L 62.000 54.354 62.000 67.503 L 62.000 80.652 62.424 81.076 L 62.848 81.500 70.985 81.500 C 78.964 81.500,79.130 81.493,79.561 81.155 L 80.000 80.809 80.000 67.518 C 80.000 51.756,79.961 52.091,82.069 49.920 C 83.209 48.746,87.465 48.505,88.777 49.541 C 90.255 50.706,91.126 52.025,91.281 53.332 C 91.336 53.796,91.445 54.216,91.524 54.265 C 91.602 54.313,91.667 60.290,91.667 67.546 L 91.667 80.739 92.109 81.120 L 92.552 81.500 100.667 81.500 L 108.781 81.500 109.224 81.120 L 109.667 80.739 109.667 64.563 C 109.667 47.092,109.681 47.422,108.768 44.500 C 108.165 42.572,106.552 39.995,105.184 38.773 C 104.965 38.577,104.665 38.300,104.518 38.157 C 104.080 37.733,102.513 36.667,102.328 36.667 C 102.233 36.667,102.114 36.558,102.063 36.425 C 102.012 36.292,101.696 36.093,101.360 35.984 C 101.025 35.875,100.712 35.732,100.667 35.667 C 100.566 35.525,98.904 34.899,97.750 34.569 C 94.101 33.526,89.657 33.275,87.737 34.005 C 87.503 34.094,87.148 34.167,86.947 34.168 C 86.747 34.168,86.369 34.281,86.106 34.418 C 85.843 34.555,85.531 34.667,85.411 34.667 C 85.292 34.667,84.821 34.854,84.364 35.083 C 83.908 35.313,83.458 35.500,83.365 35.500 C 83.271 35.500,83.169 35.556,83.139 35.625 C 83.108 35.694,82.821 35.881,82.500 36.041 C 81.973 36.303,81.599 36.523,81.092 36.870 C 80.996 36.936,80.714 37.161,80.466 37.370 C 80.219 37.579,79.826 37.900,79.594 38.083 C 79.363 38.267,78.722 38.848,78.171 39.375 C 76.945 40.547,77.233 40.596,75.613 38.936 C 74.214 37.502,72.345 36.093,71.592 35.904 C 71.358 35.845,71.167 35.730,71.167 35.649 C 71.167 35.567,71.075 35.500,70.962 35.500 C 70.849 35.500,70.268 35.324,69.670 35.109 C 66.526 33.977,62.860 33.371,60.583 33.608 M227.833 33.604 C 226.074 33.759,222.328 34.365,221.250 34.669 C 220.608 34.849,219.615 35.126,219.042 35.283 C 218.469 35.441,218.000 35.629,218.000 35.702 C 218.000 35.774,217.858 35.833,217.684 35.833 C 217.324 35.833,213.585 37.724,213.217 38.092 C 213.085 38.225,212.914 38.333,212.837 38.333 C 212.761 38.333,212.404 38.577,212.045 38.875 C 211.686 39.173,211.178 39.567,210.915 39.750 C 210.653 39.933,209.956 40.533,209.366 41.083 C 207.937 42.417,207.998 42.354,207.333 43.173 C 207.012 43.568,206.619 44.029,206.458 44.196 C 206.298 44.363,206.167 44.577,206.167 44.672 C 206.167 44.766,206.061 44.884,205.932 44.934 C 205.803 44.983,205.606 45.244,205.495 45.512 C 205.384 45.780,205.227 46.000,205.146 46.000 C 205.066 46.000,205.000 46.114,205.000 46.253 C 205.000 46.393,204.813 46.804,204.583 47.167 C 204.354 47.530,204.167 47.897,204.167 47.983 C 204.167 48.069,204.059 48.352,203.926 48.611 C 203.500 49.449,203.000 50.658,203.000 50.851 C 203.000 50.954,202.890 51.386,202.754 51.811 C 201.510 55.726,201.860 63.763,203.410 66.871 C 203.551 67.153,203.667 67.455,203.667 67.542 C 203.667 67.730,205.034 70.547,205.183 70.667 C 205.240 70.712,205.412 70.994,205.564 71.292 C 205.717 71.590,205.915 71.833,206.004 71.833 C 206.094 71.833,206.167 71.911,206.167 72.007 C 206.167 72.103,206.241 72.271,206.331 72.382 C 207.968 74.388,210.492 76.883,211.344 77.339 C 211.507 77.426,211.743 77.592,211.869 77.707 C 212.130 77.947,212.338 78.081,213.833 78.976 C 214.429 79.333,215.104 79.682,215.333 79.751 C 215.563 79.821,215.787 79.932,215.833 79.997 C 215.952 80.167,218.088 81.000,218.403 81.000 C 218.548 81.000,218.667 81.068,218.667 81.152 C 218.667 81.236,218.985 81.354,219.375 81.414 C 219.765 81.475,220.515 81.669,221.042 81.845 C 221.570 82.022,222.170 82.167,222.376 82.167 C 222.582 82.167,223.313 82.287,224.000 82.433 C 227.167 83.108,235.039 82.768,238.120 81.823 C 238.690 81.648,239.459 81.457,239.828 81.398 C 240.198 81.339,240.500 81.225,240.500 81.145 C 240.500 81.065,240.651 81.000,240.836 81.000 C 241.020 81.000,241.301 80.930,241.461 80.845 C 241.620 80.760,242.106 80.554,242.541 80.387 C 242.976 80.220,243.332 80.027,243.333 79.958 C 243.333 79.890,243.427 79.833,243.542 79.832 C 243.734 79.831,244.050 79.681,245.042 79.122 C 245.604 78.804,246.859 77.972,247.354 77.589 C 247.595 77.402,248.004 77.100,248.263 76.917 C 248.523 76.733,248.870 76.452,249.034 76.292 C 249.199 76.131,249.365 76.000,249.403 76.000 C 249.529 76.000,250.730 74.759,251.583 73.747 C 252.042 73.204,252.597 72.553,252.816 72.300 C 253.220 71.835,253.418 71.526,253.941 70.542 C 254.099 70.244,254.284 70.000,254.351 70.000 C 254.418 70.000,254.523 69.775,254.583 69.500 C 254.644 69.225,254.762 69.000,254.847 69.000 C 254.931 69.000,255.000 68.921,255.000 68.825 C 255.000 68.729,255.155 68.335,255.344 67.950 C 257.255 64.054,257.847 56.989,256.639 52.500 C 256.029 50.234,255.105 47.771,254.712 47.363 C 254.595 47.242,254.500 47.036,254.500 46.905 C 254.500 46.774,254.439 46.667,254.364 46.667 C 254.290 46.667,254.126 46.404,254.000 46.083 C 253.874 45.762,253.715 45.500,253.647 45.500 C 253.578 45.500,253.481 45.369,253.430 45.208 C 253.379 45.048,253.165 44.729,252.955 44.500 C 252.745 44.271,252.351 43.791,252.081 43.433 C 251.285 42.382,248.458 39.667,248.159 39.667 C 248.071 39.667,248.000 39.592,248.000 39.500 C 248.000 39.408,247.930 39.333,247.844 39.333 C 247.758 39.333,247.441 39.108,247.140 38.833 C 246.839 38.558,246.538 38.333,246.471 38.333 C 246.405 38.333,246.028 38.117,245.633 37.852 C 244.567 37.137,241.989 35.833,241.639 35.833 C 241.471 35.833,241.333 35.758,241.333 35.667 C 241.333 35.575,241.240 35.500,241.125 35.501 C 241.010 35.501,240.317 35.320,239.583 35.098 C 237.108 34.349,236.389 34.167,235.902 34.164 C 235.635 34.162,234.817 34.055,234.083 33.927 C 232.668 33.679,229.087 33.494,227.833 33.604 M261.221 35.076 C 260.272 35.489,260.306 34.855,260.368 50.718 C 260.424 65.257,260.429 65.434,260.798 67.000 C 261.436 69.708,262.183 71.982,262.604 72.500 C 262.716 72.637,262.859 72.956,262.922 73.208 C 262.985 73.460,263.103 73.667,263.185 73.667 C 263.266 73.667,263.333 73.754,263.333 73.860 C 263.333 74.449,266.759 78.181,267.521 78.423 C 267.693 78.478,267.833 78.583,267.833 78.658 C 267.833 78.732,268.058 78.886,268.333 79.000 C 268.608 79.114,268.833 79.267,268.833 79.341 C 268.833 79.414,269.115 79.566,269.458 79.678 C 269.802 79.790,270.121 79.927,270.167 79.982 C 270.306 80.151,271.370 80.599,272.208 80.843 C 272.644 80.969,273.000 81.131,273.000 81.203 C 273.000 81.275,273.131 81.333,273.292 81.332 C 273.452 81.332,274.333 81.513,275.250 81.736 C 281.053 83.146,289.869 83.145,295.756 81.734 C 296.675 81.514,297.557 81.333,297.714 81.333 C 297.871 81.333,298.000 81.275,298.000 81.203 C 298.000 81.131,298.356 80.969,298.792 80.843 C 299.636 80.598,300.696 80.150,300.833 79.981 C 300.879 79.924,301.100 79.821,301.324 79.751 C 301.548 79.681,302.091 79.371,302.531 79.062 C 302.970 78.753,303.374 78.500,303.427 78.500 C 303.480 78.500,303.618 78.406,303.733 78.292 C 303.847 78.177,304.187 77.896,304.487 77.667 C 304.787 77.438,305.119 77.151,305.225 77.030 C 305.330 76.909,305.585 76.652,305.792 76.458 C 305.998 76.265,306.167 76.008,306.167 75.887 C 306.167 75.766,306.231 75.667,306.309 75.667 C 306.481 75.667,307.833 73.768,307.833 73.527 C 307.833 73.434,307.934 73.257,308.056 73.134 C 308.315 72.875,309.167 70.812,309.167 70.444 C 309.167 70.307,309.226 70.169,309.299 70.139 C 309.498 70.055,310.098 67.310,310.486 64.705 C 310.715 63.168,310.738 36.376,310.511 35.778 C 310.159 34.854,309.967 34.833,301.636 34.833 C 293.300 34.833,293.004 34.864,292.666 35.753 C 292.562 36.025,292.500 40.287,292.500 47.136 C 292.501 58.038,292.286 63.134,291.818 63.306 C 291.735 63.336,291.667 63.456,291.667 63.572 C 291.667 64.606,289.793 66.639,288.534 66.973 C 288.103 67.087,287.520 67.252,287.238 67.340 C 286.596 67.541,284.094 67.550,283.706 67.353 C 283.547 67.272,283.056 67.121,282.615 67.018 C 281.798 66.826,280.439 65.951,280.260 65.500 C 280.205 65.362,279.975 64.927,279.749 64.533 C 278.630 62.583,278.615 62.390,278.511 48.405 C 278.408 34.564,278.482 35.496,277.450 35.040 C 276.738 34.725,261.954 34.758,261.221 35.076 M64.141 35.326 C 65.651 35.472,68.498 36.113,68.667 36.344 C 68.712 36.407,68.994 36.511,69.292 36.576 C 69.590 36.640,69.833 36.762,69.833 36.847 C 69.833 36.931,69.966 37.000,70.128 37.000 C 71.309 37.000,76.302 41.235,76.339 42.268 C 76.364 42.977,76.840 43.045,77.373 42.417 C 80.096 39.203,83.544 36.812,86.956 35.771 C 89.173 35.094,94.414 35.026,96.045 35.653 C 96.249 35.731,96.820 35.889,97.313 36.002 C 97.805 36.115,98.405 36.311,98.646 36.436 C 98.887 36.562,99.177 36.665,99.292 36.666 C 99.406 36.666,99.500 36.727,99.500 36.800 C 99.500 36.873,99.781 37.033,100.125 37.156 C 100.919 37.439,102.402 38.387,103.341 39.211 C 103.574 39.416,103.990 39.772,104.265 40.002 C 105.507 41.042,106.728 43.246,107.634 46.083 L 108.060 47.417 108.122 63.792 L 108.183 80.167 100.675 80.167 L 93.167 80.167 93.167 67.574 C 93.167 55.630,93.090 53.230,92.676 52.250 C 91.692 49.917,90.854 48.925,89.117 48.033 L 87.917 47.417 85.583 47.421 C 83.689 47.425,83.156 47.479,82.750 47.712 C 82.475 47.869,82.175 47.998,82.082 47.999 C 81.506 48.003,79.438 50.467,79.242 51.385 C 79.179 51.677,79.043 52.022,78.939 52.151 C 78.803 52.319,78.727 56.267,78.667 66.234 L 78.583 80.083 71.083 80.083 L 63.583 80.083 63.487 66.833 C 63.434 59.546,63.334 53.358,63.264 53.083 C 62.641 50.608,61.370 48.923,59.417 47.980 C 55.987 46.324,51.461 47.627,49.887 50.723 C 49.096 52.277,49.104 52.137,49.008 66.417 L 48.917 80.083 41.417 80.083 L 33.917 80.083 33.874 58.292 L 33.832 36.500 41.416 36.500 L 49.000 36.500 49.000 38.776 L 49.000 41.052 49.700 40.359 C 50.084 39.978,50.446 39.667,50.503 39.667 C 50.560 39.667,50.901 39.400,51.261 39.074 C 51.622 38.747,52.254 38.282,52.667 38.040 C 53.079 37.798,53.454 37.554,53.500 37.499 C 53.692 37.267,56.464 35.998,57.000 35.897 C 57.321 35.836,57.667 35.721,57.770 35.641 C 58.253 35.264,61.723 35.093,64.141 35.326 M236.176 35.768 C 237.409 36.014,238.456 36.276,238.505 36.350 C 238.554 36.424,238.910 36.535,239.297 36.597 C 239.683 36.659,240.000 36.765,240.000 36.834 C 240.000 36.902,240.220 37.002,240.489 37.056 C 240.934 37.145,243.315 38.252,244.331 38.842 C 244.559 38.975,245.572 39.689,246.581 40.430 C 249.464 42.544,251.701 45.003,253.014 47.499 C 253.327 48.095,253.623 48.620,253.672 48.666 C 253.720 48.712,253.973 49.313,254.233 50.000 C 254.494 50.688,254.769 51.400,254.845 51.583 C 255.637 53.484,256.002 59.819,255.456 62.167 C 255.317 62.762,255.154 63.605,255.092 64.038 C 255.031 64.471,254.910 64.869,254.824 64.923 C 254.737 64.976,254.667 65.141,254.667 65.288 C 254.667 67.403,250.361 73.478,247.250 75.752 C 246.883 76.021,246.438 76.373,246.260 76.537 C 246.083 76.700,245.845 76.833,245.732 76.833 C 245.620 76.833,245.503 76.896,245.472 76.972 C 245.442 77.048,245.004 77.337,244.500 77.614 C 243.996 77.891,243.321 78.264,243.000 78.442 C 242.243 78.863,239.756 79.833,239.435 79.833 C 239.298 79.833,239.144 79.901,239.093 79.984 C 239.042 80.067,238.606 80.189,238.125 80.255 C 237.644 80.320,237.213 80.426,237.167 80.490 C 236.518 81.391,223.462 81.423,222.084 80.527 C 221.992 80.467,221.542 80.333,221.083 80.228 C 219.730 79.920,218.254 79.447,218.194 79.302 C 218.164 79.227,218.014 79.167,217.861 79.167 C 217.629 79.168,215.177 77.994,214.201 77.415 C 209.879 74.849,206.133 70.385,204.694 66.083 C 201.634 56.938,204.526 46.149,211.313 41.396 C 211.508 41.259,211.909 40.927,212.204 40.657 C 212.499 40.387,212.794 40.167,212.859 40.167 C 212.923 40.167,213.075 40.070,213.196 39.953 C 214.134 39.042,219.526 36.500,220.520 36.500 C 220.692 36.500,220.833 36.434,220.833 36.352 C 220.833 36.271,221.190 36.154,221.625 36.093 C 222.060 36.031,222.892 35.865,223.472 35.723 C 226.320 35.028,232.579 35.050,236.176 35.768 M276.833 46.615 C 276.833 61.490,277.220 64.553,279.385 66.849 C 282.057 69.681,288.900 69.707,291.529 66.894 C 293.684 64.589,293.885 63.080,293.959 48.625 L 294.021 36.500 301.594 36.500 L 309.167 36.500 309.167 49.119 C 309.167 61.167,309.018 66.180,308.648 66.575 C 308.567 66.662,308.500 66.931,308.500 67.173 C 308.500 67.636,307.814 70.007,307.393 71.000 C 306.104 74.038,304.208 76.242,301.417 77.947 C 301.233 78.059,300.596 78.384,300.000 78.669 C 299.404 78.954,298.804 79.246,298.667 79.318 C 298.529 79.390,298.004 79.550,297.500 79.673 C 296.996 79.795,296.501 79.957,296.400 80.031 C 296.299 80.105,295.849 80.215,295.400 80.275 C 294.951 80.335,294.546 80.437,294.500 80.501 C 293.824 81.443,276.905 81.416,276.528 80.472 C 276.497 80.396,276.266 80.333,276.013 80.333 C 275.604 80.333,273.289 79.697,272.417 79.344 C 271.298 78.892,268.833 77.614,268.833 77.486 C 268.833 77.402,268.720 77.333,268.582 77.333 C 268.175 77.333,265.431 74.499,264.816 73.443 C 264.505 72.908,264.128 72.266,263.980 72.017 C 263.831 71.769,263.654 71.382,263.586 71.158 C 263.518 70.933,263.364 70.525,263.243 70.250 C 262.899 69.469,262.367 67.382,262.139 65.917 C 261.988 64.951,261.917 60.708,261.880 50.542 L 261.830 36.500 269.331 36.500 L 276.833 36.500 276.833 46.615 M227.333 48.344 C 221.077 49.739,217.899 56.127,220.290 62.500 C 221.154 64.802,224.467 67.833,226.119 67.833 C 226.292 67.833,226.527 67.927,226.642 68.042 C 226.920 68.320,232.107 68.334,232.683 68.058 C 232.903 67.953,233.346 67.771,233.667 67.654 C 239.781 65.427,241.631 56.296,237.000 51.210 C 236.291 50.431,234.730 49.261,234.164 49.085 C 233.936 49.013,233.713 48.900,233.667 48.834 C 233.236 48.206,229.312 47.903,227.333 48.344 M339.000 48.351 C 337.628 48.661,336.316 49.193,335.863 49.624 C 335.742 49.739,335.575 49.833,335.491 49.833 C 335.251 49.833,332.833 52.356,332.833 52.607 C 332.833 52.732,332.770 52.833,332.693 52.833 C 332.616 52.833,332.454 53.133,332.333 53.500 C 332.212 53.867,332.063 54.167,332.000 54.167 C 331.258 54.167,331.269 62.039,332.012 62.306 C 332.097 62.336,332.167 62.477,332.167 62.619 C 332.167 63.628,335.361 67.167,336.272 67.167 C 336.397 67.167,336.500 67.228,336.500 67.303 C 336.500 68.009,343.713 68.687,344.359 68.042 C 344.473 67.927,344.683 67.833,344.825 67.833 C 346.292 67.832,349.488 64.992,350.462 62.824 C 354.056 54.819,347.425 46.445,339.000 48.351 M231.917 49.847 C 232.525 50.010,233.298 50.355,234.293 50.907 C 235.221 51.422,236.824 53.161,237.168 54.026 C 237.290 54.332,237.457 54.673,237.541 54.782 C 238.594 56.167,238.024 62.458,236.799 62.972 C 236.726 63.003,236.667 63.125,236.667 63.244 C 236.667 63.464,235.128 65.167,234.929 65.167 C 234.869 65.167,234.662 65.313,234.471 65.492 C 234.279 65.670,233.907 65.864,233.644 65.922 C 233.382 65.979,233.167 66.079,233.167 66.143 C 233.167 66.735,228.266 67.088,227.058 66.583 C 226.729 66.446,226.318 66.333,226.146 66.333 C 225.974 66.333,225.833 66.264,225.833 66.180 C 225.833 66.096,225.620 65.980,225.358 65.922 C 224.842 65.809,222.831 64.047,222.833 63.708 C 222.833 63.594,222.760 63.500,222.670 63.500 C 222.451 63.500,221.832 62.299,221.467 61.167 C 221.046 59.860,221.057 56.781,221.487 55.407 C 222.071 53.546,223.424 51.737,224.750 51.047 C 225.025 50.904,225.287 50.739,225.333 50.680 C 225.450 50.531,226.636 50.041,227.333 49.854 C 228.144 49.636,231.111 49.631,231.917 49.847 M343.750 49.902 C 344.845 50.206,346.274 50.968,346.995 51.633 C 347.314 51.927,347.633 52.167,347.704 52.167 C 347.775 52.167,347.833 52.238,347.833 52.325 C 347.833 52.412,348.021 52.685,348.250 52.932 C 348.711 53.430,349.167 54.263,349.167 54.609 C 349.167 54.732,349.238 54.833,349.325 54.833 C 349.412 54.833,349.534 55.283,349.597 55.833 C 349.659 56.383,349.775 56.833,349.855 56.833 C 350.052 56.833,350.040 59.431,349.842 59.794 C 349.755 59.953,349.638 60.440,349.582 60.875 C 349.526 61.310,349.424 61.667,349.357 61.667 C 349.289 61.667,349.134 61.943,349.012 62.280 C 348.641 63.306,346.345 65.711,345.545 65.911 C 345.293 65.975,345.048 66.079,345.002 66.143 C 344.365 67.014,338.343 67.021,337.667 66.152 C 337.621 66.093,337.396 65.987,337.167 65.916 C 336.938 65.846,336.525 65.607,336.250 65.386 C 335.479 64.767,334.667 64.002,334.667 63.895 C 334.667 63.841,334.458 63.525,334.202 63.191 C 332.868 61.445,332.379 57.086,333.298 55.134 C 333.501 54.704,333.667 54.301,333.667 54.240 C 333.667 53.700,336.121 51.075,336.792 50.897 C 336.998 50.842,337.167 50.749,337.167 50.689 C 337.167 50.556,337.882 50.234,338.853 49.929 C 339.822 49.625,342.694 49.609,343.750 49.902 " stroke="none" fill="#f9fafa" fill-rule="evenodd"></path><path id="path1" d="M58.917 35.488 C 57.949 35.681,56.425 36.112,56.063 36.295 C 55.891 36.382,55.304 36.670,54.758 36.935 C 54.212 37.200,53.687 37.474,53.591 37.544 C 53.206 37.825,52.148 38.500,52.093 38.500 C 52.004 38.500,51.062 39.311,50.016 40.288 C 48.783 41.440,48.833 41.501,48.833 38.833 L 48.833 36.500 41.417 36.500 L 34.000 36.500 34.000 58.250 L 34.000 80.000 41.417 80.000 L 48.833 80.000 48.835 66.958 C 48.836 52.601,48.851 52.361,49.898 50.500 C 50.608 49.236,52.113 47.833,52.757 47.833 C 52.891 47.833,53.000 47.766,53.000 47.684 C 53.000 47.142,58.645 47.112,58.995 47.652 C 59.044 47.727,59.271 47.845,59.500 47.914 C 60.430 48.193,61.782 49.488,62.373 50.667 C 62.581 51.079,62.797 51.454,62.854 51.500 C 63.477 52.002,63.559 53.648,63.622 66.958 L 63.684 80.000 71.085 80.000 L 78.486 80.000 78.540 66.292 L 78.594 52.583 78.965 51.703 C 79.599 50.198,80.965 48.333,81.433 48.333 C 81.546 48.333,81.664 48.277,81.694 48.208 C 82.088 47.322,88.047 46.838,88.667 47.642 C 88.712 47.701,89.048 47.900,89.411 48.083 C 90.746 48.756,91.900 50.149,92.727 52.083 C 93.079 52.906,93.084 53.090,93.167 66.417 L 93.250 79.917 100.667 79.917 L 108.083 79.917 108.078 64.333 C 108.073 48.732,108.059 48.296,107.490 45.917 C 107.034 44.015,105.229 40.893,104.028 39.932 C 103.810 39.757,103.508 39.491,103.357 39.340 C 102.836 38.816,101.748 38.058,101.208 37.843 C 100.910 37.724,100.667 37.560,100.667 37.480 C 100.667 37.399,100.578 37.333,100.469 37.333 C 100.361 37.333,99.967 37.189,99.594 37.013 C 94.657 34.676,88.677 34.710,84.044 37.102 C 83.106 37.586,82.243 38.062,82.127 38.159 C 82.011 38.257,81.505 38.654,81.002 39.043 C 80.498 39.432,79.331 40.519,78.407 41.458 L 76.728 43.166 76.371 42.532 C 74.835 39.798,72.516 37.988,68.417 36.321 C 66.536 35.556,61.003 35.071,58.917 35.488 " stroke="none" fill="#050505" fill-rule="evenodd"></path><path id="path2" d="M181.375 43.542 L 181.417 79.917 188.875 79.960 L 196.333 80.003 196.333 43.585 L 196.333 7.167 188.833 7.167 L 181.333 7.167 181.375 43.542 M351.126 23.916 L 351.083 40.665 350.333 39.985 C 349.447 39.180,347.195 37.667,346.884 37.667 C 346.765 37.667,346.667 37.597,346.667 37.513 C 346.667 37.428,346.385 37.268,346.042 37.156 C 345.698 37.044,345.269 36.851,345.088 36.726 C 344.907 36.602,344.603 36.500,344.413 36.500 C 344.222 36.500,343.995 36.435,343.908 36.356 C 342.455 35.030,332.591 35.013,329.583 36.331 C 329.400 36.411,328.762 36.687,328.167 36.943 C 327.571 37.200,326.759 37.599,326.363 37.830 C 325.966 38.061,325.493 38.334,325.311 38.437 C 325.129 38.540,324.814 38.765,324.612 38.937 C 324.409 39.109,323.945 39.473,323.580 39.745 C 322.876 40.271,321.108 42.038,320.632 42.692 C 320.476 42.907,320.232 43.233,320.090 43.417 C 318.737 45.171,317.470 47.267,317.262 48.094 C 317.195 48.361,317.085 48.618,317.017 48.665 C 316.898 48.748,316.474 50.063,316.130 51.417 C 316.037 51.783,315.901 52.203,315.828 52.350 C 315.166 53.679,315.164 63.225,315.826 64.083 C 315.897 64.175,316.006 64.584,316.068 64.992 C 316.130 65.400,316.240 65.812,316.311 65.908 C 316.383 66.005,316.538 66.421,316.655 66.833 C 316.772 67.246,316.925 67.658,316.995 67.750 C 317.066 67.842,317.217 68.208,317.332 68.564 C 317.446 68.919,317.812 69.654,318.145 70.196 C 318.478 70.738,318.825 71.311,318.917 71.469 C 319.134 71.844,319.858 72.864,320.078 73.105 C 320.173 73.209,320.512 73.618,320.833 74.013 C 322.019 75.475,324.399 77.534,325.735 78.253 C 326.064 78.431,326.333 78.634,326.333 78.705 C 326.333 78.775,326.408 78.833,326.500 78.833 C 326.591 78.833,327.135 79.052,327.708 79.318 C 328.281 79.585,329.162 79.933,329.667 80.092 C 330.171 80.251,330.704 80.439,330.851 80.510 C 332.793 81.450,340.172 81.330,342.855 80.314 C 343.347 80.127,344.087 79.856,344.500 79.711 C 344.912 79.566,345.287 79.403,345.333 79.348 C 345.379 79.294,345.848 79.028,346.375 78.756 C 346.902 78.484,347.333 78.215,347.333 78.158 C 347.333 78.100,347.502 77.976,347.708 77.882 C 348.184 77.665,348.999 76.990,350.132 75.875 C 351.347 74.679,351.333 74.660,351.333 77.500 L 351.333 80.000 358.750 80.000 L 366.167 80.000 366.167 43.583 L 366.167 7.167 358.667 7.167 L 351.168 7.167 351.126 23.916 M149.750 8.849 C 147.643 9.000,143.028 9.774,142.758 10.021 C 142.671 10.101,142.474 10.167,142.319 10.167 C 141.996 10.167,139.673 10.910,138.891 11.263 C 138.603 11.393,138.320 11.500,138.263 11.500 C 138.107 11.500,135.355 12.792,134.500 13.267 C 134.087 13.496,133.544 13.762,133.292 13.858 C 133.040 13.954,132.833 14.100,132.833 14.183 C 132.833 14.266,132.740 14.333,132.625 14.334 C 132.510 14.334,131.985 14.634,131.457 15.000 C 130.929 15.367,130.452 15.667,130.397 15.667 C 130.342 15.667,129.912 15.968,129.441 16.336 C 128.969 16.705,128.414 17.136,128.207 17.295 C 126.325 18.738,123.088 21.970,121.967 23.524 C 121.418 24.285,120.342 25.752,120.212 25.917 C 119.891 26.323,118.381 28.972,118.170 29.500 C 118.041 29.821,117.890 30.121,117.833 30.167 C 117.777 30.212,117.631 30.512,117.509 30.833 C 117.387 31.154,117.119 31.792,116.912 32.250 C 114.333 37.976,113.635 45.963,115.141 52.500 C 115.750 55.145,116.242 56.601,117.262 58.781 C 117.485 59.257,117.667 59.725,117.667 59.823 C 117.667 59.920,117.734 60.000,117.815 60.000 C 117.897 60.000,118.014 60.202,118.076 60.448 C 118.138 60.695,118.334 61.100,118.511 61.349 C 118.688 61.598,118.833 61.884,118.833 61.984 C 118.833 62.084,118.903 62.167,118.989 62.167 C 119.074 62.167,119.195 62.325,119.256 62.519 C 119.423 63.044,121.184 65.599,121.927 66.394 C 122.025 66.498,122.175 66.708,122.261 66.860 C 122.624 67.506,125.004 70.005,126.583 71.399 C 126.858 71.641,127.233 71.976,127.417 72.143 C 128.087 72.752,130.943 74.801,131.890 75.351 C 132.425 75.662,133.062 76.042,133.306 76.195 C 133.876 76.551,136.172 77.695,137.250 78.159 C 137.708 78.357,138.233 78.584,138.417 78.665 C 138.600 78.746,138.938 78.863,139.167 78.925 C 139.396 78.987,139.808 79.138,140.083 79.261 C 140.358 79.384,141.071 79.605,141.667 79.751 C 142.262 79.897,143.200 80.129,143.750 80.266 C 148.647 81.484,155.851 81.481,162.000 80.258 C 164.209 79.819,165.575 79.502,165.917 79.350 C 166.100 79.268,166.737 79.035,167.333 78.831 C 169.025 78.253,171.416 77.139,173.000 76.192 C 173.321 76.000,173.801 75.720,174.068 75.570 C 175.334 74.858,175.387 75.206,173.426 71.333 C 173.171 70.829,172.802 70.079,172.606 69.667 C 172.410 69.254,172.200 68.878,172.138 68.832 C 172.077 68.785,171.975 68.541,171.912 68.290 C 171.849 68.039,171.730 67.833,171.649 67.833 C 171.567 67.833,171.500 67.750,171.500 67.648 C 171.500 67.546,171.099 66.665,170.608 65.690 C 168.863 62.220,168.455 61.416,168.410 61.363 C 168.385 61.333,167.926 61.607,167.391 61.971 C 166.422 62.630,164.375 63.667,164.045 63.667 C 163.949 63.667,163.657 63.779,163.394 63.916 C 163.131 64.053,162.800 64.165,162.658 64.166 C 162.516 64.166,162.329 64.234,162.242 64.315 C 162.101 64.447,161.585 64.589,159.083 65.181 C 156.261 65.849,147.588 65.289,145.794 64.323 C 145.635 64.237,145.421 64.167,145.319 64.167 C 144.977 64.167,141.297 62.431,140.953 62.108 C 140.841 62.003,140.412 61.692,140.000 61.417 C 138.903 60.685,136.398 58.132,135.667 56.999 C 135.529 56.786,135.304 56.486,135.167 56.333 C 134.929 56.069,134.768 55.816,134.292 54.958 C 134.177 54.752,134.038 54.546,133.982 54.500 C 133.927 54.454,133.790 54.135,133.678 53.792 C 133.566 53.448,133.415 53.167,133.342 53.167 C 133.269 53.167,133.111 52.810,132.989 52.375 C 132.868 51.940,132.671 51.396,132.552 51.167 C 132.433 50.938,132.335 50.550,132.334 50.306 C 132.334 50.061,132.263 49.836,132.176 49.806 C 131.556 49.586,131.549 40.167,132.170 40.167 C 132.239 40.167,132.346 39.831,132.407 39.421 C 132.469 39.010,132.590 38.631,132.676 38.577 C 132.763 38.524,132.833 38.372,132.833 38.241 C 132.833 37.740,134.866 33.827,135.195 33.694 C 135.271 33.664,135.333 33.564,135.333 33.472 C 135.333 33.076,138.440 29.505,138.792 29.497 C 138.860 29.496,139.093 29.308,139.309 29.080 C 139.525 28.853,139.806 28.667,139.934 28.667 C 140.062 28.667,140.167 28.597,140.167 28.512 C 140.167 28.347,140.388 28.219,142.822 26.975 C 147.968 24.346,157.180 23.627,161.583 25.510 C 161.767 25.589,162.229 25.732,162.611 25.829 C 162.993 25.926,163.518 26.116,163.778 26.252 C 164.038 26.387,164.344 26.498,164.459 26.499 C 164.934 26.501,167.900 28.147,168.199 28.575 C 168.342 28.779,168.299 28.841,169.077 27.333 C 170.553 24.474,170.827 23.907,170.830 23.708 C 170.832 23.594,170.896 23.500,170.973 23.500 C 171.050 23.500,171.212 23.200,171.333 22.833 C 171.454 22.467,171.610 22.167,171.680 22.167 C 171.750 22.167,171.856 21.942,171.917 21.667 C 171.977 21.392,172.096 21.167,172.180 21.167 C 172.264 21.167,172.333 21.092,172.333 21.000 C 172.333 20.821,172.839 19.764,174.247 17.000 C 175.209 15.110,175.210 15.037,174.278 14.555 C 174.005 14.413,173.699 14.231,173.599 14.148 C 172.917 13.589,171.551 12.797,170.494 12.348 C 169.810 12.058,169.135 11.758,168.995 11.681 C 168.854 11.605,168.481 11.486,168.167 11.417 C 167.852 11.348,167.479 11.236,167.339 11.170 C 166.890 10.957,164.937 10.360,164.333 10.252 C 164.012 10.194,163.600 10.080,163.417 9.998 C 163.233 9.916,162.296 9.723,161.333 9.570 C 160.371 9.417,159.239 9.233,158.819 9.160 C 158.398 9.088,157.086 8.982,155.902 8.926 C 154.718 8.869,153.300 8.797,152.750 8.764 C 152.200 8.732,150.850 8.770,149.750 8.849 M227.083 35.351 C 223.608 35.522,219.704 36.512,216.619 38.004 C 215.181 38.699,215.079 38.758,213.802 39.625 C 213.363 39.923,212.944 40.167,212.872 40.167 C 212.800 40.167,212.622 40.298,212.478 40.458 C 212.333 40.619,211.998 40.899,211.732 41.080 C 210.819 41.706,208.054 44.585,207.319 45.675 C 206.198 47.340,205.680 48.294,204.829 50.265 C 202.711 55.171,203.093 63.234,205.687 68.373 C 206.980 70.936,209.317 73.810,211.322 75.306 C 211.649 75.550,211.992 75.834,212.083 75.937 C 212.538 76.448,216.959 78.999,217.391 79.000 C 217.469 79.000,217.769 79.105,218.058 79.232 C 218.881 79.596,221.377 80.335,221.782 80.334 C 221.983 80.334,222.187 80.398,222.235 80.477 C 222.693 81.216,231.235 81.406,235.167 80.764 C 237.235 80.426,240.470 79.584,240.667 79.332 C 240.713 79.273,241.106 79.127,241.542 79.008 C 241.977 78.888,242.333 78.742,242.333 78.684 C 242.333 78.626,242.727 78.395,243.208 78.170 C 243.690 77.945,244.421 77.529,244.833 77.245 C 245.246 76.961,245.715 76.680,245.875 76.620 C 246.035 76.560,246.167 76.433,246.167 76.339 C 246.167 76.244,246.275 76.167,246.408 76.167 C 246.541 76.167,246.710 76.072,246.783 75.957 C 246.857 75.842,247.217 75.526,247.583 75.254 C 248.743 74.396,250.841 72.164,251.750 70.821 C 252.024 70.415,252.287 70.046,252.333 70.000 C 252.379 69.954,252.529 69.692,252.667 69.417 C 252.804 69.142,252.955 68.879,253.002 68.833 C 253.146 68.693,254.000 66.865,254.000 66.696 C 254.000 66.609,254.112 66.323,254.249 66.061 C 254.386 65.798,254.498 65.447,254.499 65.281 C 254.500 65.114,254.580 64.828,254.678 64.645 C 256.010 62.157,255.668 53.747,254.086 50.083 C 253.968 49.808,253.815 49.399,253.747 49.174 C 253.678 48.950,253.520 48.663,253.395 48.538 C 253.269 48.412,253.167 48.202,253.167 48.071 C 253.167 47.940,253.092 47.833,253.000 47.833 C 252.908 47.833,252.833 47.734,252.833 47.612 C 252.833 47.370,251.837 45.784,251.629 45.694 C 251.558 45.664,251.500 45.564,251.500 45.472 C 251.500 45.173,248.266 41.828,247.258 41.083 C 247.010 40.900,246.719 40.675,246.612 40.583 C 246.109 40.154,245.176 39.500,245.066 39.500 C 244.998 39.500,244.825 39.393,244.680 39.263 C 244.307 38.927,241.850 37.667,241.568 37.667 C 241.439 37.667,241.333 37.608,241.333 37.536 C 241.333 37.465,240.979 37.301,240.545 37.173 C 240.112 37.045,239.568 36.842,239.337 36.721 C 239.106 36.601,238.754 36.502,238.556 36.501 C 238.357 36.500,238.169 36.439,238.139 36.365 C 238.089 36.244,236.309 35.864,234.083 35.499 C 232.861 35.299,229.562 35.229,227.083 35.351 M261.885 50.542 C 261.950 66.468,261.937 66.281,263.127 69.833 C 263.516 70.998,264.153 72.347,264.683 73.133 C 264.949 73.528,265.167 73.892,265.167 73.943 C 265.167 74.163,267.361 76.437,268.000 76.880 C 268.229 77.038,268.675 77.355,268.991 77.584 C 269.306 77.813,269.656 78.000,269.768 78.000 C 269.881 78.000,269.997 78.056,270.028 78.125 C 270.115 78.320,271.888 79.167,272.211 79.167 C 272.370 79.167,272.500 79.232,272.500 79.313 C 272.500 79.393,272.744 79.506,273.042 79.564 C 273.340 79.622,274.071 79.809,274.667 79.979 C 277.625 80.823,280.935 81.203,285.333 81.205 C 288.274 81.206,293.005 80.828,294.083 80.506 C 294.358 80.424,295.371 80.151,296.333 79.900 C 297.296 79.649,298.121 79.396,298.167 79.339 C 298.212 79.281,298.572 79.140,298.966 79.024 C 299.361 78.909,300.058 78.594,300.515 78.324 C 300.973 78.054,301.386 77.833,301.433 77.833 C 301.578 77.833,303.895 75.946,304.333 75.470 C 305.828 73.848,307.232 71.392,307.697 69.583 C 307.815 69.125,307.956 68.712,308.010 68.667 C 308.708 68.079,308.912 64.132,308.965 50.208 L 309.018 36.500 301.521 36.500 L 294.024 36.500 293.970 48.958 C 293.931 58.065,293.864 61.506,293.722 61.750 C 293.615 61.933,293.434 62.627,293.320 63.292 C 293.206 63.956,293.056 64.500,292.987 64.500 C 292.917 64.500,292.810 64.725,292.750 65.000 C 292.690 65.275,292.571 65.500,292.487 65.500 C 292.402 65.500,292.333 65.612,292.333 65.750 C 292.333 66.447,290.538 67.897,288.874 68.544 C 286.945 69.295,280.667 68.868,280.667 67.986 C 280.667 67.902,280.560 67.833,280.430 67.833 C 279.792 67.833,278.189 65.778,277.819 64.485 C 277.703 64.081,277.556 63.675,277.493 63.583 C 277.357 63.388,277.083 61.469,276.838 59.000 C 276.738 57.993,276.665 52.844,276.666 46.875 L 276.667 36.500 269.247 36.500 L 261.828 36.500 261.885 50.542 M232.128 48.338 C 234.464 48.951,236.543 50.340,237.917 52.206 C 240.211 55.322,240.128 61.564,237.753 64.499 C 237.126 65.273,235.853 66.500,235.676 66.500 C 235.579 66.500,235.500 66.573,235.500 66.662 C 235.500 66.797,234.709 67.212,232.917 68.015 C 231.858 68.490,226.506 68.503,226.175 68.031 C 226.125 67.959,225.746 67.802,225.333 67.681 C 224.140 67.332,221.500 65.377,221.500 64.842 C 221.500 64.755,221.405 64.623,221.288 64.550 C 221.172 64.477,220.980 64.229,220.863 64.000 C 220.745 63.771,220.497 63.291,220.311 62.933 C 216.288 55.187,223.637 46.110,232.128 48.338 M343.970 48.354 C 344.766 48.549,345.454 48.764,345.500 48.832 C 345.546 48.900,345.766 49.012,345.988 49.082 C 349.327 50.125,351.790 55.041,351.318 59.720 C 350.972 63.154,348.287 66.805,345.459 67.686 C 345.161 67.779,344.786 67.926,344.625 68.012 C 343.719 68.500,338.422 68.489,337.931 67.998 C 337.841 67.907,337.649 67.833,337.506 67.833 C 337.129 67.833,335.167 66.849,335.167 66.660 C 335.167 66.572,335.077 66.500,334.968 66.500 C 334.287 66.500,331.972 63.258,331.655 61.861 C 331.557 61.433,331.403 60.945,331.311 60.776 C 331.101 60.389,331.090 56.047,331.299 55.780 C 331.384 55.672,331.501 55.332,331.559 55.026 C 331.687 54.349,332.366 52.833,332.541 52.833 C 332.610 52.833,332.667 52.738,332.667 52.622 C 332.667 52.012,335.635 49.306,336.558 49.075 C 336.801 49.014,337.000 48.908,337.000 48.840 C 337.000 48.772,337.581 48.586,338.292 48.427 C 339.002 48.267,339.658 48.112,339.750 48.081 C 340.328 47.890,342.703 48.044,343.970 48.354 " stroke="none" fill="#247beb" fill-rule="evenodd"></path><path id="path3" d="M181.500 7.000 C 181.500 7.109,184.111 7.167,189.000 7.167 C 193.889 7.167,196.500 7.109,196.500 7.000 C 196.500 6.891,193.889 6.833,189.000 6.833 C 184.111 6.833,181.500 6.891,181.500 7.000 M351.188 7.058 C 351.049 7.226,351.010 11.719,351.042 24.018 L 351.085 40.750 351.126 23.958 L 351.167 7.167 358.666 7.167 L 366.166 7.167 366.209 43.625 L 366.251 80.083 366.251 43.500 L 366.250 6.917 358.813 6.873 C 352.685 6.838,351.344 6.870,351.188 7.058 M150.375 8.786 C 150.627 8.824,151.040 8.824,151.292 8.786 C 151.544 8.748,151.337 8.717,150.833 8.717 C 150.329 8.717,150.123 8.748,150.375 8.786 M153.625 8.787 C 153.923 8.824,154.410 8.824,154.708 8.787 C 155.006 8.750,154.762 8.720,154.167 8.720 C 153.571 8.720,153.327 8.750,153.625 8.787 M151.292 24.618 C 151.498 24.657,151.835 24.657,152.042 24.618 C 152.248 24.578,152.079 24.545,151.667 24.545 C 151.254 24.545,151.085 24.578,151.292 24.618 M138.987 29.445 L 138.583 29.890 139.036 29.570 C 139.286 29.394,139.492 29.194,139.495 29.125 C 139.503 28.920,139.412 28.977,138.987 29.445 M92.208 35.282 C 92.369 35.323,92.631 35.323,92.792 35.282 C 92.952 35.240,92.821 35.205,92.500 35.205 C 92.179 35.205,92.048 35.240,92.208 35.282 M227.875 35.286 C 228.127 35.324,228.540 35.324,228.792 35.286 C 229.044 35.248,228.838 35.217,228.333 35.217 C 227.829 35.217,227.623 35.248,227.875 35.286 M230.708 35.286 C 230.960 35.324,231.373 35.324,231.625 35.286 C 231.877 35.248,231.671 35.217,231.167 35.217 C 230.662 35.217,230.456 35.248,230.708 35.286 M335.377 35.286 C 335.631 35.325,336.006 35.324,336.211 35.284 C 336.416 35.244,336.208 35.213,335.750 35.214 C 335.292 35.216,335.124 35.248,335.377 35.286 M337.544 35.286 C 337.797 35.325,338.172 35.324,338.377 35.284 C 338.582 35.244,338.375 35.213,337.917 35.214 C 337.458 35.216,337.291 35.248,337.544 35.286 M48.863 38.698 C 48.847 39.954,48.890 41.015,48.958 41.058 C 49.027 41.101,49.063 40.412,49.039 39.526 C 48.961 36.674,48.894 36.360,48.863 38.698 M309.079 49.583 C 309.079 56.825,309.100 59.763,309.125 56.113 C 309.150 52.462,309.150 46.537,309.125 42.946 C 309.100 39.355,309.079 42.342,309.079 49.583 M49.939 40.097 C 49.676 40.328,49.494 40.550,49.535 40.590 C 49.575 40.630,49.822 40.439,50.085 40.165 C 50.665 39.559,50.590 39.525,49.939 40.097 M221.500 51.833 C 221.210 52.200,221.009 52.500,221.055 52.500 C 221.101 52.500,221.376 52.200,221.667 51.833 C 221.957 51.467,222.157 51.167,222.111 51.167 C 222.066 51.167,221.790 51.467,221.500 51.833 M78.541 66.962 L 78.500 80.007 71.016 79.962 C 66.900 79.937,63.566 79.973,63.609 80.042 C 63.753 80.275,78.501 80.193,78.590 79.958 C 78.634 79.844,78.650 73.938,78.625 66.833 L 78.581 53.917 78.541 66.962 M48.874 67.045 L 48.833 80.007 41.349 79.962 C 37.233 79.937,33.900 79.973,33.942 80.042 C 34.086 80.275,48.834 80.193,48.923 79.958 C 48.967 79.844,48.983 73.975,48.959 66.917 L 48.915 54.083 48.874 67.045 M331.268 56.764 C 331.125 57.135,331.146 59.543,331.294 59.776 C 331.362 59.882,331.417 59.188,331.417 58.234 C 331.417 56.362,331.418 56.373,331.268 56.764 M255.720 58.333 C 255.720 58.929,255.750 59.173,255.787 58.875 C 255.824 58.577,255.824 58.090,255.787 57.792 C 255.750 57.494,255.720 57.737,255.720 58.333 M276.846 58.264 C 276.852 58.715,276.922 59.421,277.001 59.833 C 277.103 60.374,277.118 60.164,277.052 59.083 C 276.952 57.451,276.826 56.950,276.846 58.264 M139.451 60.851 C 139.677 61.131,141.167 62.228,141.167 62.114 C 141.167 62.073,140.735 61.716,140.208 61.321 C 139.681 60.925,139.340 60.714,139.451 60.851 M152.127 65.451 C 152.334 65.491,152.634 65.490,152.794 65.448 C 152.953 65.406,152.783 65.374,152.417 65.375 C 152.050 65.377,151.920 65.411,152.127 65.451 M334.667 66.213 C 334.667 66.245,334.910 66.449,335.208 66.667 C 335.544 66.913,335.660 66.953,335.514 66.773 C 335.292 66.499,334.667 66.086,334.667 66.213 M229.125 68.451 C 229.331 68.491,229.669 68.491,229.875 68.451 C 230.081 68.411,229.912 68.379,229.500 68.379 C 229.088 68.379,228.919 68.411,229.125 68.451 M340.960 68.451 C 341.168 68.491,341.468 68.490,341.627 68.448 C 341.786 68.406,341.617 68.374,341.250 68.375 C 340.883 68.377,340.753 68.411,340.960 68.451 M246.023 76.514 C 245.807 76.690,245.694 76.831,245.773 76.828 C 245.977 76.821,246.573 76.351,246.488 76.266 C 246.449 76.227,246.240 76.339,246.023 76.514 M303.051 76.762 L 302.583 77.191 303.125 76.814 C 303.423 76.607,303.667 76.414,303.667 76.385 C 303.667 76.254,303.482 76.367,303.051 76.762 M96.875 80.125 C 98.960 80.151,102.373 80.151,104.458 80.125 C 106.544 80.098,104.837 80.077,100.667 80.077 C 96.496 80.077,94.790 80.098,96.875 80.125 M160.750 80.500 C 160.429 80.638,160.430 80.644,160.782 80.655 C 160.983 80.661,161.193 80.592,161.250 80.500 C 161.372 80.303,161.209 80.303,160.750 80.500 M150.128 81.287 C 150.428 81.325,150.878 81.324,151.128 81.286 C 151.378 81.248,151.133 81.217,150.583 81.218 C 150.033 81.219,149.828 81.250,150.128 81.287 M153.295 81.287 C 153.594 81.325,154.044 81.324,154.295 81.286 C 154.545 81.248,154.300 81.217,153.750 81.218 C 153.200 81.219,152.995 81.250,153.295 81.287 M227.794 81.285 C 228.001 81.324,228.301 81.323,228.460 81.281 C 228.620 81.239,228.450 81.207,228.083 81.209 C 227.717 81.211,227.586 81.245,227.794 81.285 M230.875 81.286 C 231.127 81.324,231.540 81.324,231.792 81.286 C 232.044 81.248,231.838 81.217,231.333 81.217 C 230.829 81.217,230.623 81.248,230.875 81.286 M282.621 81.287 C 282.917 81.324,283.442 81.324,283.788 81.288 C 284.134 81.252,283.892 81.222,283.250 81.221 C 282.608 81.221,282.325 81.250,282.621 81.287 M286.875 81.288 C 287.219 81.324,287.781 81.324,288.125 81.288 C 288.469 81.252,288.188 81.223,287.500 81.223 C 286.813 81.223,286.531 81.252,286.875 81.288 M335.127 81.285 C 335.334 81.324,335.634 81.323,335.794 81.281 C 335.953 81.239,335.783 81.207,335.417 81.209 C 335.050 81.211,334.920 81.245,335.127 81.285 M337.544 81.286 C 337.797 81.325,338.172 81.324,338.377 81.284 C 338.582 81.244,338.375 81.213,337.917 81.214 C 337.458 81.216,337.291 81.248,337.544 81.286 " stroke="none" fill="#7592b8" fill-rule="evenodd"></path><path id="path4" d="M196.415 43.583 C 196.415 63.658,196.435 71.896,196.458 61.888 C 196.482 51.881,196.482 35.456,196.458 25.388 C 196.435 15.321,196.415 23.508,196.415 43.583 M174.194 17.090 C 173.914 17.703,173.968 17.834,174.270 17.277 C 174.411 17.017,174.495 16.773,174.457 16.735 C 174.419 16.696,174.300 16.857,174.194 17.090 M170.242 25.015 C 170.095 25.299,170.005 25.561,170.041 25.597 C 170.077 25.633,170.232 25.401,170.384 25.081 C 170.727 24.362,170.608 24.308,170.242 25.015 M137.083 31.128 C 136.992 31.195,136.806 31.400,136.672 31.583 C 136.491 31.829,136.545 31.811,136.880 31.513 C 137.288 31.149,137.412 30.995,137.292 31.003 C 137.269 31.004,137.175 31.060,137.083 31.128 M136.110 32.304 C 135.710 32.745,135.769 32.898,136.181 32.486 C 136.372 32.295,136.496 32.107,136.457 32.068 C 136.419 32.030,136.262 32.136,136.110 32.304 M61.544 35.286 C 61.797 35.325,62.172 35.324,62.377 35.284 C 62.582 35.244,62.375 35.213,61.917 35.214 C 61.458 35.216,61.291 35.248,61.544 35.286 M90.708 35.286 C 90.960 35.324,91.373 35.324,91.625 35.286 C 91.877 35.248,91.671 35.217,91.167 35.217 C 90.662 35.217,90.456 35.248,90.708 35.286 M33.914 58.167 C 33.914 70.129,33.934 75.023,33.958 69.042 C 33.983 63.060,33.983 53.273,33.958 47.292 C 33.934 41.310,33.914 46.204,33.914 58.167 M276.745 47.250 C 276.745 53.208,276.766 55.622,276.792 52.613 C 276.817 49.604,276.817 44.729,276.792 41.780 C 276.766 38.830,276.745 41.292,276.745 47.250 M248.333 41.885 C 248.333 41.914,248.577 42.158,248.875 42.427 L 249.417 42.917 248.927 42.375 C 248.471 41.870,248.333 41.757,248.333 41.885 M131.723 43.667 C 131.723 44.354,131.752 44.635,131.788 44.292 C 131.824 43.948,131.824 43.385,131.788 43.042 C 131.752 42.698,131.723 42.979,131.723 43.667 M131.724 46.250 C 131.724 46.983,131.754 47.263,131.789 46.871 C 131.824 46.479,131.824 45.879,131.788 45.537 C 131.752 45.196,131.723 45.517,131.724 46.250 M251.833 45.778 C 251.833 45.864,252.021 46.189,252.250 46.500 C 252.479 46.811,252.667 47.016,252.667 46.956 C 252.667 46.897,252.479 46.572,252.250 46.234 C 252.021 45.896,251.833 45.691,251.833 45.778 M55.288 47.287 C 55.584 47.324,56.109 47.324,56.455 47.288 C 56.800 47.252,56.558 47.222,55.917 47.221 C 55.275 47.221,54.992 47.250,55.288 47.287 M84.958 47.287 C 85.256 47.324,85.744 47.324,86.042 47.287 C 86.340 47.250,86.096 47.220,85.500 47.220 C 84.904 47.220,84.660 47.250,84.958 47.287 M132.000 49.472 C 132.000 49.671,132.068 49.833,132.152 49.833 C 132.321 49.833,132.296 49.407,132.116 49.227 C 132.052 49.163,132.000 49.274,132.000 49.472 M333.681 51.274 C 333.123 51.883,332.667 52.456,332.667 52.547 C 332.667 52.637,332.829 52.495,333.027 52.231 C 333.225 51.966,333.729 51.394,334.146 50.958 C 334.563 50.523,334.857 50.167,334.800 50.167 C 334.743 50.167,334.240 50.665,333.681 51.274 M132.357 50.500 C 132.357 50.637,132.421 50.900,132.500 51.083 C 132.590 51.293,132.643 51.324,132.643 51.167 C 132.643 51.029,132.579 50.767,132.500 50.583 C 132.410 50.373,132.357 50.342,132.357 50.500 M132.857 51.833 C 132.857 51.971,132.921 52.233,133.000 52.417 C 133.090 52.627,133.143 52.658,133.143 52.500 C 133.143 52.362,133.079 52.100,133.000 51.917 C 132.910 51.707,132.857 51.676,132.857 51.833 M254.819 52.420 C 254.908 52.693,255.020 53.067,255.068 53.250 C 255.117 53.433,255.124 53.290,255.084 52.931 C 255.045 52.572,254.932 52.199,254.835 52.102 C 254.710 51.976,254.705 52.070,254.819 52.420 M332.006 53.656 C 331.795 54.050,331.785 54.216,331.980 54.096 C 332.127 54.005,332.356 53.333,332.240 53.333 C 332.206 53.333,332.101 53.478,332.006 53.656 M63.579 67.500 C 63.579 74.329,63.600 77.123,63.625 73.708 C 63.650 70.294,63.650 64.706,63.625 61.292 C 63.600 57.877,63.579 60.671,63.579 67.500 M219.489 56.112 C 219.396 56.357,219.345 56.675,219.375 56.820 C 219.405 56.965,219.513 56.765,219.614 56.375 C 219.820 55.582,219.748 55.431,219.489 56.112 M331.278 55.778 C 331.217 55.839,331.167 56.114,331.167 56.389 C 331.167 57.004,331.329 56.881,331.439 56.182 C 331.520 55.664,331.484 55.572,331.278 55.778 M255.548 56.917 C 255.549 57.375,255.581 57.543,255.620 57.289 C 255.658 57.036,255.657 56.661,255.617 56.456 C 255.578 56.251,255.546 56.458,255.548 56.917 M135.838 57.122 C 135.836 57.236,136.040 57.539,136.292 57.797 C 136.544 58.055,136.629 58.112,136.481 57.925 C 136.333 57.737,136.129 57.433,136.028 57.250 C 135.926 57.067,135.841 57.009,135.838 57.122 M219.388 58.250 C 219.389 58.892,219.419 59.134,219.455 58.788 C 219.491 58.442,219.490 57.917,219.454 57.621 C 219.417 57.325,219.387 57.608,219.388 58.250 M255.545 59.667 C 255.545 60.079,255.578 60.248,255.618 60.042 C 255.657 59.835,255.657 59.498,255.618 59.292 C 255.578 59.085,255.545 59.254,255.545 59.667 M219.346 59.833 C 219.347 59.971,219.454 60.308,219.584 60.583 L 219.820 61.083 219.721 60.583 C 219.597 59.957,219.342 59.448,219.346 59.833 M331.167 60.129 C 331.167 60.414,331.241 60.693,331.331 60.749 C 331.430 60.810,331.472 60.645,331.435 60.335 C 331.354 59.633,331.167 59.490,331.167 60.129 M277.000 61.073 C 277.000 61.389,277.058 61.683,277.128 61.726 C 277.199 61.770,277.228 61.512,277.194 61.153 C 277.117 60.347,277.000 60.299,277.000 61.073 M169.000 62.543 C 169.000 62.603,169.216 63.019,169.481 63.467 C 169.745 63.916,170.014 64.450,170.079 64.654 C 170.144 64.858,170.237 64.985,170.286 64.936 C 170.335 64.888,170.132 64.376,169.835 63.799 C 169.316 62.788,169.000 62.314,169.000 62.543 M308.875 63.083 C 308.877 63.450,308.911 63.580,308.951 63.373 C 308.991 63.166,308.990 62.866,308.948 62.706 C 308.906 62.547,308.874 62.717,308.875 63.083 M220.333 63.076 C 220.333 63.143,220.483 63.388,220.667 63.621 C 220.850 63.854,221.000 63.990,221.000 63.924 C 221.000 63.857,220.850 63.612,220.667 63.379 C 220.483 63.146,220.333 63.010,220.333 63.076 M332.767 64.167 C 333.004 64.638,333.706 65.500,333.853 65.500 C 333.934 65.500,333.869 65.368,333.708 65.207 C 333.548 65.046,333.242 64.689,333.029 64.415 C 332.816 64.141,332.698 64.029,332.767 64.167 M277.932 64.822 C 278.055 65.276,278.669 66.343,278.659 66.083 C 278.655 65.992,278.465 65.579,278.237 65.167 C 278.010 64.754,277.872 64.599,277.932 64.822 M308.691 64.917 C 308.675 65.100,308.615 65.438,308.558 65.667 C 308.479 65.987,308.501 66.040,308.656 65.896 C 308.768 65.792,308.827 65.460,308.789 65.146 C 308.751 64.837,308.707 64.733,308.691 64.917 M222.103 65.546 C 222.159 65.709,222.366 65.925,222.561 66.025 C 222.865 66.181,222.882 66.174,222.674 65.979 C 222.541 65.853,222.335 65.637,222.216 65.500 C 222.027 65.282,222.013 65.288,222.103 65.546 M308.356 67.000 C 308.341 67.229,308.290 67.604,308.243 67.833 L 308.157 68.250 308.336 67.840 C 308.435 67.614,308.486 67.239,308.449 67.006 L 308.383 66.583 308.356 67.000 M173.122 70.792 C 173.291 71.233,173.996 72.435,173.998 72.286 C 174.001 72.108,173.180 70.500,173.086 70.500 C 173.044 70.500,173.061 70.631,173.122 70.792 M306.879 71.670 C 306.686 72.127,306.564 72.500,306.607 72.500 C 306.720 72.500,307.374 70.985,307.295 70.907 C 307.259 70.870,307.072 71.214,306.879 71.670 M305.511 73.984 C 305.322 74.250,305.167 74.527,305.167 74.600 C 305.167 74.672,305.354 74.477,305.583 74.167 C 305.813 73.856,306.000 73.579,306.000 73.551 C 306.000 73.393,305.815 73.557,305.511 73.984 " stroke="none" fill="#235491" fill-rule="evenodd"></path></g></svg>
