<svg id="svg" version="1.1" xmlns="http://www.w3.org/2000/svg" xmlns:xlink="http://www.w3.org/1999/xlink" width="400" height="400" viewBox="0, 0, 400,400"><g id="svgg"><path id="path0" d="M342.093 181.200 C 342.093 181.970,342.175 182.285,342.276 181.900 C 342.376 181.515,342.376 180.885,342.276 180.500 C 342.175 180.115,342.093 180.430,342.093 181.200 M57.693 184.400 C 57.693 185.170,57.775 185.485,57.876 185.100 C 57.976 184.715,57.976 184.085,57.876 183.700 C 57.775 183.315,57.693 183.630,57.693 184.400 M273.693 206.000 C 273.693 206.770,273.775 207.085,273.876 206.700 C 273.976 206.315,273.976 205.685,273.876 205.300 C 273.775 204.915,273.693 205.230,273.693 206.000 M126.093 209.600 C 126.093 210.370,126.175 210.685,126.276 210.300 C 126.376 209.915,126.376 209.285,126.276 208.900 C 126.175 208.515,126.093 208.830,126.093 209.600 M276.093 236.000 C 276.093 236.770,276.175 237.085,276.276 236.700 C 276.376 236.315,276.376 235.685,276.276 235.300 C 276.175 234.915,276.093 235.230,276.093 236.000 M87.600 262.688 C 72.211 263.685,57.947 275.431,55.010 289.526 C 49.644 315.276,74.470 336.738,101.199 329.456 C 104.722 328.496,111.200 325.575,111.200 324.946 C 111.200 324.556,105.474 313.169,105.189 312.993 C 105.023 312.890,103.560 313.411,101.939 314.149 C 82.669 322.931,63.044 305.213,72.464 287.540 C 77.628 277.852,91.925 274.110,102.800 279.600 L 105.191 280.807 108.237 274.727 L 111.282 268.646 109.985 267.588 C 106.355 264.625,95.245 262.193,87.600 262.688 M189.758 262.836 C 167.938 264.869,154.318 289.603,163.230 311.011 C 173.743 336.263,209.790 337.792,222.765 313.536 C 229.382 301.166,227.870 285.145,219.090 274.600 C 211.599 265.603,201.884 261.706,189.758 262.836 M117.600 296.600 L 117.600 329.600 136.400 329.600 L 155.200 329.600 155.200 323.206 L 155.200 316.812 143.900 316.706 L 132.600 316.600 132.497 290.100 L 132.394 263.600 124.997 263.600 L 117.600 263.600 117.600 296.600 M233.315 287.700 C 233.522 316.243,233.765 317.857,238.684 323.364 C 247.500 333.234,270.029 333.502,278.910 323.842 C 284.307 317.972,284.517 316.661,284.704 287.700 L 284.860 263.600 277.449 263.600 L 270.038 263.600 269.906 285.700 C 269.757 310.896,269.767 310.805,266.645 313.811 C 262.920 317.398,255.095 317.411,251.383 313.838 C 248.237 310.808,248.251 310.931,248.094 285.700 L 247.957 263.600 240.548 263.600 L 233.140 263.600 233.315 287.700 M294.400 296.603 L 294.400 329.676 306.900 329.491 C 320.555 329.289,322.126 329.078,327.151 326.768 C 354.935 313.995,351.909 273.586,322.523 264.972 C 318.650 263.837,318.444 263.820,306.500 263.676 L 294.400 263.530 294.400 296.603 M350.093 270.400 C 350.093 271.170,350.175 271.485,350.276 271.100 C 350.376 270.715,350.376 270.085,350.276 269.700 C 350.175 269.315,350.093 269.630,350.093 270.400 M196.981 276.984 C 205.703 278.653,210.813 285.897,210.793 296.564 C 210.767 310.178,202.858 318.075,190.911 316.413 C 171.308 313.686,171.331 280.114,190.939 276.838 C 193.865 276.349,193.634 276.343,196.981 276.984 M316.145 277.396 C 336.956 281.805,334.146 315.518,312.900 316.333 L 308.800 316.491 308.800 296.912 C 308.800 286.144,308.920 277.213,309.067 277.067 C 309.521 276.612,313.268 276.786,316.145 277.396 M44.137 335.769 C 44.172 336.429,44.462 337.009,44.800 337.100 C 45.201 337.207,45.248 337.151,44.940 336.930 C 44.688 336.749,44.389 336.150,44.277 335.600 C 44.101 334.739,44.082 334.762,44.137 335.769 M284.134 335.996 C 284.179 336.672,284.457 337.018,285.000 337.073 C 285.576 337.131,285.611 337.098,285.125 336.952 C 284.753 336.842,284.364 336.357,284.259 335.875 C 284.100 335.142,284.080 335.161,284.134 335.996 " stroke="none" fill="#7393e3" fill-rule="evenodd"></path><path id="path1" d="M66.800 57.976 C 63.377 59.027,62.673 61.020,61.991 71.600 C 61.743 75.450,61.387 78.960,61.200 79.400 C 61.013 79.840,60.482 85.690,60.020 92.400 C 59.558 99.110,59.017 105.140,58.817 105.800 C 58.618 106.460,57.979 113.570,57.397 121.600 C 56.816 129.630,56.188 136.560,56.003 137.000 C 55.818 137.440,55.186 144.550,54.598 152.800 C 54.010 161.050,53.421 168.070,53.290 168.400 C 53.158 168.730,52.546 174.850,51.929 182.000 C 48.698 219.489,48.122 225.850,47.906 226.400 C 47.776 226.730,47.190 233.750,46.602 242.000 C 46.014 250.250,45.382 257.360,45.196 257.800 C 45.010 258.240,44.470 264.180,43.996 271.000 C 43.522 277.820,42.980 283.760,42.792 284.200 C 42.604 284.640,41.975 291.660,41.395 299.800 C 40.816 307.940,40.190 314.960,40.005 315.400 C 39.616 316.325,38.379 332.862,38.391 336.962 C 38.400 339.664,38.435 339.757,40.017 341.262 L 41.634 342.800 80.003 342.800 L 118.372 342.800 119.776 341.567 C 121.821 339.772,122.895 334.829,121.367 334.243 C 119.676 333.594,116.400 333.978,116.400 334.826 C 116.400 337.395,119.385 337.200,80.010 337.200 C 58.596 337.200,44.356 337.052,44.218 336.829 C 44.092 336.625,44.256 334.060,44.583 331.129 C 44.909 328.198,45.544 321.120,45.994 315.400 C 46.443 309.680,46.891 304.639,46.989 304.197 C 47.086 303.756,47.710 296.826,48.376 288.797 C 49.041 280.769,49.767 272.760,49.991 271.000 C 50.214 269.240,50.758 263.210,51.200 257.600 C 51.642 251.990,52.267 244.970,52.590 242.000 C 52.912 239.030,53.456 233.000,53.798 228.600 C 54.140 224.200,54.681 218.080,55.001 215.000 C 55.321 211.920,56.034 203.910,56.585 197.200 C 57.136 190.490,57.769 183.560,57.992 181.800 C 58.215 180.040,58.758 174.010,59.200 168.400 C 59.642 162.790,60.267 155.770,60.589 152.800 C 60.912 149.830,61.543 142.720,61.993 137.000 C 62.443 131.280,62.891 126.239,62.989 125.797 C 63.086 125.356,63.710 118.426,64.376 110.397 C 65.041 102.369,65.766 94.360,65.989 92.600 C 66.211 90.840,66.853 83.744,67.415 76.831 C 67.978 69.918,68.530 64.113,68.643 63.931 C 68.755 63.749,85.816 63.600,106.556 63.600 L 144.265 63.600 144.732 64.500 C 144.989 64.995,145.550 66.390,145.978 67.600 C 146.406 68.810,147.497 71.690,148.402 74.000 C 149.306 76.310,150.597 79.640,151.270 81.400 C 151.943 83.160,153.081 86.130,153.800 88.000 C 154.519 89.870,155.673 92.930,156.364 94.800 C 157.055 96.670,157.792 98.560,158.001 99.000 C 158.210 99.440,158.852 101.060,159.426 102.600 C 160.001 104.140,161.064 106.930,161.789 108.800 C 162.514 110.670,163.673 113.730,164.364 115.600 C 165.055 117.470,165.796 119.360,166.010 119.800 C 166.224 120.240,166.750 121.590,167.178 122.800 C 167.606 124.010,168.698 126.890,169.605 129.200 C 170.511 131.510,171.784 134.840,172.434 136.600 C 173.084 138.360,173.787 140.160,173.997 140.600 C 174.207 141.040,174.908 142.840,175.554 144.600 C 176.200 146.360,177.571 149.960,178.600 152.600 C 179.629 155.240,180.801 158.300,181.204 159.400 C 181.608 160.500,182.675 163.290,183.577 165.600 C 184.479 167.910,186.318 172.680,187.664 176.200 C 189.010 179.720,190.703 184.130,191.426 186.000 C 192.149 187.870,193.635 191.740,194.727 194.600 C 195.820 197.460,197.337 201.420,198.098 203.400 C 198.860 205.380,199.616 207.360,199.778 207.800 C 200.023 208.466,200.202 208.266,200.847 206.600 C 201.273 205.500,201.796 204.240,202.010 203.800 C 202.224 203.360,202.750 202.010,203.178 200.800 C 203.606 199.590,204.697 196.710,205.603 194.400 C 206.509 192.090,207.857 188.580,208.599 186.600 C 209.342 184.620,210.478 181.650,211.124 180.000 C 211.770 178.350,213.571 173.670,215.126 169.600 C 216.681 165.530,218.688 160.310,219.587 158.000 C 220.485 155.690,222.282 151.010,223.578 147.600 C 224.875 144.190,226.675 139.510,227.578 137.200 C 228.482 134.890,230.281 130.210,231.578 126.800 C 232.875 123.390,235.047 117.720,236.406 114.200 C 237.765 110.680,239.565 106.000,240.406 103.800 C 241.247 101.600,243.047 96.920,244.406 93.400 C 248.633 82.452,251.241 75.635,253.943 68.476 C 254.633 66.648,255.385 64.803,255.613 64.376 C 256.136 63.398,330.846 63.126,331.476 64.100 C 331.785 64.576,332.338 70.413,335.148 102.800 C 335.826 110.610,336.563 118.530,336.786 120.400 C 337.009 122.270,337.555 128.390,337.998 134.000 C 338.442 139.610,338.994 145.820,339.225 147.800 C 339.457 149.780,340.174 157.520,340.820 165.000 C 341.466 172.480,342.531 184.810,343.187 192.400 C 343.843 199.990,344.562 207.730,344.786 209.600 C 345.009 211.470,345.554 217.590,345.996 223.200 C 346.438 228.810,346.984 234.930,347.209 236.800 C 347.433 238.670,348.150 246.410,348.803 254.000 C 351.939 290.507,352.381 295.508,352.599 296.976 C 352.728 297.842,353.369 304.772,354.023 312.376 C 354.678 319.979,355.418 328.382,355.669 331.050 C 355.919 333.717,356.011 336.193,355.874 336.552 C 355.645 337.149,352.617 337.196,319.912 337.102 L 284.200 337.000 283.881 332.800 C 283.705 330.490,283.471 328.009,283.361 327.288 L 283.159 325.975 280.557 328.288 L 277.954 330.600 278.193 334.755 C 278.461 339.399,278.802 340.326,280.782 341.787 L 282.155 342.800 320.189 342.800 C 355.502 342.800,358.293 342.751,359.211 342.112 C 360.710 341.070,361.515 339.939,361.791 338.486 C 362.052 337.118,360.518 314.252,360.095 313.200 C 359.864 312.625,358.405 296.158,356.125 268.400 C 355.538 261.250,354.944 255.310,354.807 255.200 C 354.669 255.090,354.058 248.160,353.451 239.800 C 352.843 231.440,352.193 224.240,352.007 223.800 C 351.821 223.360,351.191 216.340,350.608 208.200 C 350.024 200.060,349.394 193.040,349.208 192.600 C 349.021 192.160,348.462 186.040,347.965 179.000 C 347.468 171.960,346.944 166.110,346.800 166.000 C 346.657 165.890,346.045 158.960,345.440 150.600 C 344.835 142.240,344.231 135.130,344.097 134.800 C 343.964 134.470,343.256 127.180,342.525 118.600 C 339.859 87.305,338.955 77.388,338.718 76.800 C 338.584 76.470,338.262 73.077,338.002 69.259 C 337.454 61.206,337.293 60.594,335.294 58.995 L 333.800 57.800 295.200 57.680 C 247.754 57.533,251.755 56.998,249.370 63.800 C 248.753 65.560,248.128 67.090,247.981 67.200 C 247.834 67.310,247.221 68.930,246.620 70.800 C 246.019 72.670,245.386 74.380,245.214 74.600 C 245.042 74.820,244.509 76.170,244.029 77.600 C 243.550 79.030,242.921 80.650,242.631 81.200 C 242.342 81.750,241.698 83.460,241.199 85.000 C 240.701 86.540,240.152 87.981,239.980 88.201 C 239.807 88.422,239.175 90.042,238.576 91.801 C 237.977 93.561,237.355 95.180,237.194 95.400 C 237.033 95.620,236.509 96.970,236.029 98.400 C 235.550 99.830,234.921 101.450,234.631 102.000 C 234.342 102.550,233.694 104.260,233.191 105.800 C 232.688 107.340,232.050 108.960,231.773 109.400 C 231.497 109.840,230.904 111.401,230.457 112.870 C 230.011 114.338,229.452 115.868,229.216 116.270 C 228.784 117.004,227.744 119.710,225.477 126.000 C 224.803 127.870,224.148 129.490,224.022 129.600 C 223.896 129.710,223.275 131.330,222.643 133.200 C 222.012 135.070,221.352 136.782,221.178 137.004 C 221.003 137.227,220.411 138.667,219.862 140.204 C 217.130 147.849,216.228 150.217,215.978 150.400 C 215.828 150.510,215.188 152.220,214.556 154.200 C 213.923 156.180,213.275 157.897,213.116 158.016 C 212.957 158.134,212.440 159.484,211.968 161.016 C 211.496 162.547,210.977 163.890,210.815 164.000 C 210.652 164.110,210.018 165.730,209.406 167.600 C 208.794 169.470,208.150 171.183,207.975 171.407 C 207.800 171.630,207.176 173.250,206.589 175.007 C 206.001 176.763,205.381 178.380,205.211 178.600 C 205.040 178.820,204.509 180.170,204.029 181.600 C 203.550 183.030,202.921 184.650,202.631 185.200 C 202.342 185.750,201.706 187.416,201.219 188.903 C 200.148 192.171,199.972 192.104,198.620 187.912 C 198.036 186.102,197.430 184.527,197.273 184.411 C 197.116 184.295,196.563 182.850,196.043 181.200 C 195.523 179.550,194.967 178.110,194.808 178.000 C 194.649 177.890,194.016 176.270,193.400 174.400 C 192.784 172.530,192.152 170.910,191.995 170.800 C 191.837 170.690,191.235 169.090,190.657 167.244 C 190.079 165.399,189.448 163.689,189.256 163.444 C 189.063 163.200,188.592 162.010,188.208 160.800 C 187.824 159.590,187.288 158.240,187.017 157.800 C 186.745 157.360,186.019 155.470,185.402 153.600 C 184.785 151.730,184.161 150.110,184.015 150.000 C 183.869 149.890,183.422 148.720,183.020 147.400 C 182.619 146.080,181.942 144.280,181.516 143.400 C 181.091 142.520,180.375 140.630,179.926 139.200 C 179.477 137.770,178.981 136.510,178.822 136.400 C 178.664 136.290,178.032 134.670,177.419 132.800 C 176.805 130.930,176.189 129.310,176.050 129.200 C 175.910 129.090,175.448 127.920,175.022 126.600 C 174.596 125.280,173.855 123.300,173.374 122.200 C 172.894 121.100,172.182 119.210,171.791 118.000 C 171.401 116.790,170.968 115.710,170.829 115.600 C 170.691 115.490,170.060 113.870,169.427 112.000 C 168.795 110.130,168.126 108.403,167.940 108.161 C 167.755 107.920,167.161 106.328,166.620 104.624 C 166.080 102.921,165.473 101.318,165.272 101.063 C 165.071 100.809,164.496 99.340,163.994 97.800 C 163.492 96.260,162.953 94.910,162.797 94.800 C 162.641 94.690,162.021 93.070,161.420 91.200 C 160.819 89.330,160.175 87.615,159.989 87.389 C 159.802 87.163,159.187 85.559,158.621 83.825 C 158.055 82.091,157.437 80.476,157.249 80.236 C 157.061 79.996,156.496 78.540,155.994 77.000 C 155.492 75.460,154.956 74.110,154.802 74.000 C 154.649 73.890,154.194 72.720,153.792 71.400 C 153.390 70.080,152.659 68.100,152.167 67.000 C 151.675 65.900,150.922 63.999,150.493 62.775 C 149.564 60.123,147.970 58.403,146.022 57.950 C 144.233 57.534,68.159 57.559,66.800 57.976 M126.706 203.300 C 126.339 207.975,125.496 218.820,124.833 227.400 C 124.170 235.980,123.351 245.864,123.013 249.364 C 122.676 252.865,122.400 256.510,122.400 257.464 L 122.400 259.200 125.342 259.200 L 128.284 259.200 128.510 256.700 C 128.634 255.325,129.145 247.990,129.647 240.400 C 130.148 232.810,130.703 226.540,130.879 226.467 C 131.056 226.393,131.214 225.583,131.232 224.667 C 131.263 223.053,131.289 223.089,132.077 225.800 C 132.525 227.340,133.014 228.690,133.165 228.800 C 133.315 228.910,133.954 230.710,134.583 232.800 C 135.213 234.890,135.842 236.690,135.982 236.800 C 136.121 236.910,136.747 238.755,137.373 240.900 C 138.000 243.045,138.629 244.800,138.772 244.800 C 138.916 244.800,139.356 246.015,139.752 247.500 C 140.148 248.985,140.797 250.920,141.194 251.800 C 141.592 252.680,142.315 254.750,142.800 256.400 C 143.286 258.050,143.827 259.580,144.002 259.800 C 144.177 260.020,144.809 261.820,145.407 263.800 C 146.004 265.780,146.627 267.580,146.791 267.800 C 146.955 268.020,147.492 269.550,147.986 271.200 C 148.479 272.850,149.008 274.290,149.162 274.400 C 149.317 274.510,149.854 276.040,150.356 277.800 C 150.858 279.560,151.521 281.540,151.829 282.200 C 152.137 282.860,152.833 284.889,153.376 286.708 C 153.918 288.527,154.506 290.237,154.681 290.508 C 154.857 290.779,155.188 291.630,155.417 292.400 C 155.823 293.760,155.856 293.690,156.570 290.000 C 156.975 287.910,157.535 285.433,157.815 284.496 C 158.382 282.599,158.361 282.511,155.198 273.600 C 154.300 271.070,153.044 267.470,152.408 265.600 C 150.473 259.915,149.174 256.194,141.798 235.200 C 137.894 224.090,134.173 213.470,133.528 211.600 C 132.883 209.730,131.725 206.400,130.954 204.200 C 130.183 202.000,129.167 198.985,128.696 197.500 C 127.491 193.702,127.449 193.825,126.706 203.300 M271.441 197.861 C 270.883 199.587,269.606 203.340,268.602 206.200 C 267.598 209.060,266.340 212.660,265.807 214.200 C 260.287 230.120,259.101 233.517,254.430 246.798 C 250.161 258.934,250.026 259.418,250.753 259.998 C 252.064 261.045,252.399 262.246,252.446 266.074 C 252.472 268.123,252.575 269.485,252.676 269.100 C 252.776 268.715,253.000 268.400,253.173 268.400 C 253.347 268.400,254.000 266.645,254.627 264.500 C 255.253 262.355,255.879 260.510,256.018 260.400 C 256.158 260.290,256.787 258.490,257.417 256.400 C 258.046 254.310,258.667 252.510,258.795 252.400 C 259.061 252.172,261.151 246.150,262.613 241.400 C 263.155 239.640,263.866 237.660,264.193 237.000 C 264.521 236.340,265.176 234.450,265.650 232.800 C 266.123 231.150,266.639 229.620,266.795 229.400 C 266.951 229.180,267.499 227.695,268.013 226.100 C 269.282 222.157,269.448 222.382,269.780 228.500 C 269.939 231.415,270.458 239.470,270.935 246.400 L 271.802 259.000 274.942 259.118 L 278.083 259.235 277.853 256.918 C 277.726 255.643,277.519 253.070,277.392 251.200 C 277.265 249.330,276.898 244.920,276.575 241.400 C 276.252 237.880,275.540 229.060,274.992 221.800 C 273.762 205.489,272.849 195.116,272.625 194.891 C 272.531 194.798,271.998 196.134,271.441 197.861 M229.827 317.226 C 229.715 317.542,228.430 321.220,226.972 325.400 C 225.514 329.580,224.078 333.585,223.781 334.300 L 223.241 335.600 200.244 335.600 C 182.502 335.600,177.173 335.488,176.924 335.109 C 176.746 334.838,176.315 333.805,175.967 332.813 C 175.470 331.398,174.866 330.685,173.167 329.512 C 171.975 328.688,170.157 327.292,169.126 326.408 C 166.443 324.106,166.186 324.599,167.988 328.586 C 168.389 329.474,169.093 331.460,169.553 333.000 C 171.079 338.107,172.094 339.630,174.674 340.680 L 176.936 341.600 200.444 341.600 C 213.374 341.600,224.050 341.443,224.168 341.252 C 224.286 341.060,224.960 340.788,225.665 340.647 C 227.078 340.364,228.400 339.359,228.400 338.567 C 228.400 338.286,228.633 337.819,228.918 337.529 C 229.349 337.090,230.439 333.979,231.486 330.200 C 231.608 329.760,231.823 329.310,231.965 329.200 C 232.106 329.090,232.530 328.000,232.907 326.778 L 233.592 324.556 231.812 320.604 C 230.829 318.423,229.940 316.909,229.827 317.226 " stroke="none" fill="#fafafa" fill-rule="evenodd"></path><path id="path2" d="M70.146 63.886 L 68.892 64.044 68.612 67.922 C 68.459 70.055,68.077 74.410,67.764 77.600 C 67.450 80.790,66.660 89.700,66.007 97.400 C 65.353 105.100,64.719 112.030,64.596 112.800 C 64.473 113.570,63.845 120.320,63.200 127.800 C 60.084 163.927,59.611 169.250,59.220 172.600 C 58.988 174.580,58.352 181.600,57.806 188.200 C 57.260 194.800,56.537 202.990,56.199 206.400 C 55.861 209.810,55.226 216.740,54.788 221.800 C 54.350 226.860,53.462 237.120,52.816 244.600 C 52.170 252.080,51.451 259.820,51.220 261.800 C 50.988 263.780,50.353 270.800,49.807 277.400 C 49.262 284.000,48.546 292.100,48.216 295.400 C 47.886 298.700,47.234 305.810,46.767 311.200 C 46.300 316.590,45.603 324.420,45.218 328.600 C 44.834 332.780,44.593 336.335,44.683 336.500 C 44.773 336.665,60.756 336.800,80.199 336.800 L 115.552 336.800 115.676 335.300 L 115.800 333.800 118.900 333.683 C 120.858 333.609,122.000 333.720,122.000 333.983 C 122.000 334.561,155.828 334.558,157.485 333.980 C 158.639 333.578,159.600 332.215,159.600 330.981 C 159.600 330.662,159.776 330.400,159.991 330.400 C 160.226 330.400,160.425 327.580,160.491 323.300 C 160.583 317.280,160.675 316.369,161.093 317.308 C 162.135 319.649,166.030 324.352,166.955 324.387 C 167.151 324.394,168.501 325.359,169.955 326.531 C 171.410 327.703,173.184 329.064,173.897 329.556 C 174.646 330.072,175.660 331.412,176.297 332.725 L 177.400 335.000 199.720 335.103 C 214.027 335.170,222.308 335.063,222.787 334.807 C 223.255 334.557,223.984 333.024,224.739 330.704 C 225.402 328.667,226.598 325.200,227.397 323.000 C 228.196 320.800,229.055 318.325,229.307 317.500 C 229.871 315.655,230.616 315.564,230.951 317.300 C 231.090 318.015,231.727 319.680,232.368 321.000 C 233.010 322.320,233.634 323.850,233.756 324.400 C 234.038 325.668,237.549 329.334,239.170 330.051 C 239.846 330.350,240.400 330.738,240.400 330.912 C 240.400 331.086,241.255 331.583,242.300 332.017 C 243.345 332.450,244.652 333.059,245.205 333.369 C 249.539 335.801,272.309 335.672,273.129 333.212 C 273.205 332.985,273.443 332.800,273.659 332.800 C 274.872 332.800,278.000 331.035,278.000 330.351 C 278.000 329.938,278.170 329.600,278.377 329.600 C 278.585 329.600,279.845 328.591,281.177 327.357 C 282.510 326.123,283.623 325.178,283.651 325.257 C 283.679 325.336,283.904 327.920,284.151 331.000 L 284.600 336.600 320.100 336.702 L 355.600 336.804 355.584 335.702 C 355.575 335.096,355.230 330.820,354.817 326.200 C 354.404 321.580,353.423 310.420,352.637 301.400 C 351.851 292.380,351.120 284.550,351.013 284.000 C 350.906 283.450,350.451 278.320,350.002 272.600 C 349.553 266.880,349.001 260.670,348.776 258.800 C 348.550 256.930,347.839 249.280,347.195 241.800 C 344.295 208.096,343.194 195.729,343.013 194.800 C 342.906 194.250,342.451 189.120,342.002 183.400 C 341.553 177.680,341.001 171.470,340.776 169.600 C 340.550 167.730,339.839 160.080,339.195 152.600 C 336.518 121.491,335.221 106.920,335.014 105.600 C 334.893 104.830,334.341 98.800,333.787 92.200 C 332.338 74.941,331.286 64.353,330.991 64.057 C 330.654 63.720,261.736 63.479,258.548 63.803 L 256.096 64.053 254.999 66.927 C 254.396 68.507,253.320 71.330,252.607 73.200 C 251.215 76.853,249.712 80.757,247.371 86.800 C 246.561 88.890,245.316 92.130,244.605 94.000 C 242.451 99.661,240.936 103.589,239.204 108.000 C 238.297 110.310,237.127 113.370,236.604 114.800 C 236.081 116.230,234.361 120.730,232.782 124.800 C 231.203 128.870,229.233 134.000,228.405 136.200 C 227.577 138.400,226.061 142.360,225.036 145.000 C 224.011 147.640,222.482 151.600,221.637 153.800 C 220.793 156.000,219.179 160.157,218.051 163.038 C 216.922 165.919,215.649 169.249,215.221 170.438 C 214.794 171.627,213.700 174.490,212.791 176.800 C 211.881 179.110,210.808 181.900,210.404 183.000 C 210.001 184.100,208.834 187.160,207.811 189.800 C 206.789 192.440,204.863 197.480,203.533 201.000 C 202.203 204.520,200.878 207.850,200.589 208.400 L 200.064 209.400 199.579 208.200 C 198.375 205.220,196.641 200.735,195.559 197.800 C 194.910 196.040,194.207 194.240,193.997 193.800 C 193.787 193.360,193.047 191.470,192.352 189.600 C 191.657 187.730,190.500 184.670,189.780 182.800 C 189.060 180.930,188.001 178.140,187.426 176.600 C 186.852 175.060,186.210 173.440,186.001 173.000 C 185.792 172.560,185.055 170.670,184.364 168.800 C 183.673 166.930,182.514 163.870,181.790 162.000 C 181.065 160.130,179.852 156.980,179.095 155.000 C 176.972 149.455,175.241 144.946,173.717 141.000 C 172.953 139.020,171.740 135.870,171.022 134.000 C 168.475 127.366,167.091 123.758,165.804 120.400 C 165.088 118.530,163.840 115.290,163.032 113.200 C 162.224 111.110,161.011 107.960,160.335 106.200 C 159.660 104.440,158.519 101.470,157.800 99.600 C 157.081 97.730,155.943 94.760,155.270 93.000 C 154.597 91.240,153.306 87.910,152.401 85.600 C 151.495 83.290,150.328 80.230,149.807 78.800 C 149.285 77.370,148.110 74.310,147.194 72.000 C 146.279 69.690,145.248 66.966,144.903 65.946 C 144.306 64.178,144.193 64.080,142.483 63.846 C 140.564 63.583,72.252 63.621,70.146 63.886 M132.612 207.600 C 135.193 214.970,137.741 222.260,138.274 223.800 C 138.808 225.340,139.873 228.400,140.641 230.600 C 141.410 232.800,142.564 236.130,143.206 238.000 C 143.847 239.870,145.110 243.470,146.011 246.000 C 146.913 248.530,148.063 251.860,148.567 253.400 C 149.071 254.940,151.592 262.189,154.170 269.509 L 158.856 282.818 158.038 285.182 C 156.021 291.011,155.357 308.000,157.147 308.000 C 157.292 308.000,157.618 308.855,157.870 309.900 C 158.123 310.945,158.463 312.136,158.626 312.547 C 158.885 313.202,158.819 313.238,158.087 312.847 C 157.536 312.552,153.842 312.400,147.226 312.400 L 137.200 312.400 137.200 287.460 C 137.200 270.851,137.058 262.111,136.774 261.297 C 136.108 259.388,134.867 259.102,127.922 259.260 C 123.295 259.366,121.823 259.282,121.894 258.917 C 121.946 258.652,122.444 252.172,123.001 244.517 C 123.557 236.863,124.276 227.900,124.598 224.600 C 124.920 221.300,125.550 213.290,125.999 206.800 C 126.873 194.147,127.055 192.636,127.591 193.606 C 127.772 193.933,130.031 200.230,132.612 207.600 M273.379 195.700 C 273.510 196.855,273.882 201.670,274.207 206.400 C 274.533 211.130,274.977 216.710,275.195 218.800 C 275.764 224.257,278.136 255.024,278.171 257.400 L 278.200 259.400 272.978 259.282 C 267.933 259.168,267.720 259.197,266.714 260.129 L 265.673 261.094 265.490 283.847 C 265.290 308.794,265.241 309.328,263.069 310.618 C 260.561 312.108,254.000 311.336,254.000 309.551 C 254.000 309.315,253.728 308.547,253.395 307.845 C 252.889 306.779,252.764 303.545,252.638 288.185 C 252.452 265.695,252.203 262.081,250.730 260.517 L 249.678 259.400 251.016 255.400 C 255.731 241.313,272.602 193.600,272.870 193.600 C 273.020 193.600,273.249 194.545,273.379 195.700 M95.531 262.405 C 101.722 263.209,111.600 266.915,111.600 268.434 C 111.600 268.776,105.713 280.781,105.357 281.165 C 105.273 281.255,104.348 280.872,103.302 280.314 C 89.508 272.948,72.733 279.976,70.800 293.930 C 68.533 310.302,86.691 321.489,102.487 313.454 C 104.404 312.478,105.272 312.218,105.517 312.543 C 105.705 312.795,107.182 315.651,108.800 318.891 C 112.286 325.876,112.392 325.439,106.578 327.989 C 86.735 336.692,62.997 327.282,55.723 307.830 C 46.811 283.995,68.775 258.931,95.531 262.405 M198.520 262.409 C 228.327 266.719,237.754 306.990,213.200 325.120 C 200.218 334.706,180.061 332.795,169.223 320.952 C 147.365 297.066,166.990 257.850,198.520 262.409 M132.800 290.000 L 132.800 316.400 144.200 316.400 L 155.600 316.400 155.600 323.204 L 155.600 330.008 136.500 329.904 L 117.400 329.800 117.298 296.700 L 117.195 263.600 124.998 263.600 L 132.800 263.600 132.800 290.000 M248.412 284.900 C 248.424 307.829,248.591 309.869,250.685 312.757 C 254.005 317.335,264.752 316.857,267.682 312.000 C 269.419 309.121,269.594 306.591,269.597 284.300 L 269.600 263.600 277.423 263.600 L 285.245 263.600 285.103 287.900 C 284.948 314.550,285.001 313.924,282.423 319.462 C 275.198 334.988,243.370 335.309,235.847 319.932 C 232.993 314.099,233.057 314.784,232.898 287.900 L 232.755 263.600 240.577 263.600 L 248.400 263.600 248.412 284.900 M321.117 264.230 C 351.560 270.451,355.956 314.440,327.400 327.114 C 321.671 329.657,321.154 329.727,306.900 329.902 L 293.600 330.065 293.600 296.833 L 293.600 263.600 305.817 263.600 C 315.363 263.600,318.708 263.738,321.117 264.230 M188.800 277.554 C 173.971 282.400,172.364 308.544,186.511 314.802 C 190.941 316.761,198.296 316.509,202.123 314.267 C 213.907 307.361,213.047 284.096,200.800 278.466 C 198.456 277.389,191.033 276.825,188.800 277.554 M309.200 296.545 L 309.200 316.000 311.842 316.000 C 335.432 316.000,336.259 278.655,312.700 277.292 L 309.200 277.089 309.200 296.545 " stroke="none" fill="#040404" fill-rule="evenodd"></path><path id="path3" d="M86.505 262.687 C 87.114 262.779,88.014 262.777,88.505 262.682 C 88.997 262.587,88.500 262.511,87.400 262.514 C 86.300 262.517,85.897 262.595,86.505 262.687 M91.907 262.690 C 92.626 262.779,93.706 262.777,94.307 262.686 C 94.908 262.595,94.320 262.522,93.000 262.524 C 91.680 262.526,91.188 262.601,91.907 262.690 M190.105 262.687 C 190.714 262.779,191.614 262.777,192.105 262.682 C 192.597 262.587,192.100 262.511,191.000 262.514 C 189.900 262.517,189.497 262.595,190.105 262.687 M195.305 262.687 C 195.914 262.779,196.814 262.777,197.305 262.682 C 197.797 262.587,197.300 262.511,196.200 262.514 C 195.100 262.517,194.697 262.595,195.305 262.687 M132.589 290.000 C 132.589 304.630,132.639 310.615,132.700 303.300 C 132.761 295.985,132.761 284.015,132.700 276.700 C 132.639 269.385,132.589 275.370,132.589 290.000 M248.186 284.600 C 248.186 296.260,248.237 300.972,248.300 295.072 C 248.362 289.171,248.362 279.631,248.300 273.872 C 248.237 268.112,248.186 272.940,248.186 284.600 M269.786 284.800 C 269.786 296.570,269.837 301.385,269.900 295.500 C 269.962 289.615,269.962 279.985,269.900 274.100 C 269.837 268.215,269.786 273.030,269.786 284.800 M284.987 285.400 C 284.987 297.500,285.037 302.508,285.100 296.528 C 285.162 290.549,285.162 280.649,285.100 274.528 C 285.038 268.408,284.987 273.300,284.987 285.400 M294.098 296.700 L 294.000 330.000 305.300 329.907 L 316.600 329.813 305.502 329.700 L 294.405 329.587 294.300 296.494 L 294.195 263.400 294.098 296.700 M77.400 264.614 C 76.400 265.096,76.366 265.151,77.200 264.948 C 78.333 264.671,79.607 264.021,79.000 264.030 C 78.780 264.033,78.060 264.296,77.400 264.614 M103.400 264.555 C 104.060 264.855,105.050 265.211,105.600 265.346 C 106.403 265.543,106.364 265.484,105.400 265.045 C 104.740 264.745,103.750 264.389,103.200 264.254 C 102.397 264.057,102.436 264.116,103.400 264.555 M180.400 265.000 C 179.850 265.314,179.580 265.572,179.800 265.572 C 180.020 265.572,180.650 265.314,181.200 265.000 C 181.750 264.686,182.020 264.428,181.800 264.428 C 181.580 264.428,180.950 264.686,180.400 265.000 M206.400 265.000 C 206.950 265.314,207.580 265.572,207.800 265.572 C 208.020 265.572,207.750 265.314,207.200 265.000 C 206.650 264.686,206.020 264.428,205.800 264.428 C 205.580 264.428,205.850 264.686,206.400 265.000 M321.800 264.800 C 322.240 264.989,322.870 265.144,323.200 265.144 C 323.578 265.144,323.504 265.017,323.000 264.800 C 322.560 264.611,321.930 264.456,321.600 264.456 C 321.222 264.456,321.296 264.583,321.800 264.800 M171.191 271.156 C 169.766 272.452,168.690 273.577,168.800 273.656 C 168.910 273.735,170.167 272.675,171.593 271.300 C 174.874 268.138,174.614 268.045,171.191 271.156 M336.200 272.800 C 337.059 273.680,337.852 274.400,337.962 274.400 C 338.072 274.400,337.459 273.680,336.600 272.800 C 335.741 271.920,334.948 271.200,334.838 271.200 C 334.728 271.200,335.341 271.920,336.200 272.800 M64.175 272.900 L 63.000 274.200 64.300 273.025 C 65.512 271.930,65.784 271.600,65.475 271.600 C 65.406 271.600,64.821 272.185,64.175 272.900 M217.200 272.525 C 217.200 272.594,217.785 273.179,218.500 273.825 L 219.800 275.000 218.625 273.700 C 217.530 272.488,217.200 272.216,217.200 272.525 M166.323 276.700 C 165.618 277.521,165.090 278.400,165.301 278.400 C 165.383 278.400,165.849 277.860,166.337 277.200 C 167.301 275.896,167.292 275.572,166.323 276.700 M308.983 277.300 C 308.878 277.575,308.840 286.530,308.900 297.200 L 309.008 316.600 309.104 296.919 L 309.200 277.238 311.700 277.096 L 314.200 276.954 311.687 276.877 C 309.986 276.825,309.113 276.961,308.983 277.300 M184.944 278.769 C 184.253 279.190,183.547 279.775,183.375 280.068 C 183.190 280.382,183.377 280.334,183.831 279.950 C 184.254 279.593,185.140 279.015,185.800 278.666 C 186.460 278.317,186.820 278.025,186.600 278.018 C 186.380 278.010,185.635 278.348,184.944 278.769 M81.600 279.000 C 81.050 279.314,80.780 279.572,81.000 279.572 C 81.220 279.572,81.850 279.314,82.400 279.000 C 82.950 278.686,83.220 278.428,83.000 278.428 C 82.780 278.428,82.150 278.686,81.600 279.000 M223.000 280.400 C 223.341 281.060,223.711 281.600,223.821 281.600 C 223.931 281.600,223.741 281.060,223.400 280.400 C 223.059 279.740,222.689 279.200,222.579 279.200 C 222.469 279.200,222.659 279.740,223.000 280.400 M204.800 281.000 C 205.546 281.770,206.247 282.400,206.357 282.400 C 206.467 282.400,205.946 281.770,205.200 281.000 C 204.454 280.230,203.753 279.600,203.643 279.600 C 203.533 279.600,204.054 280.230,204.800 281.000 M163.381 281.637 C 163.029 282.318,162.812 282.945,162.899 283.032 C 162.986 283.119,163.356 282.562,163.722 281.795 C 164.544 280.070,164.259 279.938,163.381 281.637 M324.600 282.400 C 325.683 283.500,326.660 284.400,326.770 284.400 C 326.880 284.400,326.083 283.500,325.000 282.400 C 323.917 281.300,322.940 280.400,322.830 280.400 C 322.720 280.400,323.517 281.300,324.600 282.400 M180.723 282.700 C 180.018 283.521,179.490 284.400,179.701 284.400 C 179.783 284.400,180.249 283.860,180.737 283.200 C 181.701 281.896,181.692 281.572,180.723 282.700 M225.656 287.200 C 225.656 287.530,225.811 288.160,226.000 288.600 C 226.217 289.104,226.344 289.178,226.344 288.800 C 226.344 288.470,226.189 287.840,226.000 287.400 C 225.783 286.896,225.656 286.822,225.656 287.200 M160.653 290.436 C 160.514 291.131,160.422 292.262,160.449 292.950 C 160.478 293.694,160.638 293.240,160.843 291.828 C 161.211 289.304,161.076 288.318,160.653 290.436 M54.154 296.800 C 54.154 299.550,54.218 300.675,54.296 299.300 C 54.374 297.925,54.374 295.675,54.296 294.300 C 54.218 292.925,54.154 294.050,54.154 296.800 M70.131 296.600 C 70.133 298.140,70.205 298.721,70.292 297.891 C 70.379 297.061,70.377 295.801,70.289 295.091 C 70.200 294.381,70.129 295.060,70.131 296.600 M226.931 296.600 C 226.933 298.140,227.005 298.721,227.092 297.891 C 227.179 297.061,227.177 295.801,227.089 295.091 C 227.000 294.381,226.929 295.060,226.931 296.600 M346.520 296.800 C 346.520 298.010,346.595 298.505,346.687 297.900 C 346.778 297.295,346.778 296.305,346.687 295.700 C 346.595 295.095,346.520 295.590,346.520 296.800 M160.509 301.200 C 160.509 302.190,160.587 302.595,160.682 302.100 C 160.778 301.605,160.778 300.795,160.682 300.300 C 160.587 299.805,160.509 300.210,160.509 301.200 M70.448 300.800 C 70.442 301.130,70.683 301.940,70.986 302.600 C 71.693 304.145,71.703 303.426,71.000 301.600 C 70.703 300.830,70.455 300.470,70.448 300.800 M345.657 303.457 C 345.406 304.709,345.274 305.808,345.365 305.898 C 345.456 305.989,345.742 305.045,346.000 303.800 C 346.258 302.555,346.390 301.457,346.292 301.359 C 346.194 301.261,345.909 302.205,345.657 303.457 M233.309 309.600 C 233.309 310.590,233.387 310.995,233.482 310.500 C 233.578 310.005,233.578 309.195,233.482 308.700 C 233.387 308.205,233.309 308.610,233.309 309.600 M284.514 309.800 C 284.517 310.900,284.595 311.303,284.687 310.695 C 284.779 310.086,284.777 309.186,284.682 308.695 C 284.587 308.203,284.511 308.700,284.514 309.800 M74.800 309.325 C 74.800 309.394,75.385 309.979,76.100 310.625 L 77.400 311.800 76.225 310.500 C 75.130 309.288,74.800 309.016,74.800 309.325 M181.583 311.700 C 183.241 313.466,183.600 313.784,183.600 313.483 C 183.600 313.419,182.745 312.564,181.700 311.583 L 179.800 309.800 181.583 311.700 M343.078 311.405 C 342.712 312.172,342.495 312.800,342.596 312.800 C 342.870 312.800,344.084 310.351,343.901 310.168 C 343.814 310.081,343.444 310.638,343.078 311.405 M223.078 313.005 C 222.712 313.772,222.495 314.400,222.596 314.400 C 222.870 314.400,224.084 311.951,223.901 311.768 C 223.814 311.681,223.444 312.238,223.078 313.005 M204.200 313.050 C 203.481 313.662,203.334 313.905,203.833 313.657 C 204.566 313.293,205.941 311.976,205.549 312.014 C 205.467 312.022,204.860 312.488,204.200 313.050 M104.162 312.862 C 103.974 313.165,104.053 313.214,104.393 313.004 C 104.724 312.800,105.181 313.029,105.666 313.642 L 106.422 314.600 105.947 313.500 C 105.452 312.354,104.652 312.068,104.162 312.862 M317.600 315.434 C 316.290 315.970,316.277 315.992,317.400 315.775 C 318.060 315.648,318.771 315.376,318.980 315.172 C 319.459 314.703,319.321 314.729,317.600 315.434 M88.305 316.283 C 88.802 316.379,89.522 316.375,89.905 316.275 C 90.287 316.175,89.880 316.096,89.000 316.101 C 88.120 316.105,87.807 316.187,88.305 316.283 M193.105 316.683 C 193.602 316.779,194.322 316.775,194.705 316.675 C 195.087 316.575,194.680 316.496,193.800 316.501 C 192.920 316.505,192.607 316.587,193.105 316.683 M155.289 323.096 L 155.200 329.592 136.300 329.700 L 117.400 329.808 136.313 329.904 C 151.471 329.981,155.264 329.897,155.423 329.483 C 155.532 329.199,155.567 326.184,155.500 322.783 L 155.378 316.600 155.289 323.096 M108.200 318.800 C 108.541 319.460,108.911 320.000,109.021 320.000 C 109.131 320.000,108.941 319.460,108.600 318.800 C 108.259 318.140,107.889 317.600,107.779 317.600 C 107.669 317.600,107.859 318.140,108.200 318.800 M336.981 320.100 L 335.400 321.800 337.100 320.219 C 338.681 318.748,338.984 318.400,338.681 318.400 C 338.616 318.400,337.851 319.165,336.981 320.100 M281.400 320.400 C 281.059 321.060,280.869 321.600,280.979 321.600 C 281.089 321.600,281.459 321.060,281.800 320.400 C 282.141 319.740,282.331 319.200,282.221 319.200 C 282.111 319.200,281.741 319.740,281.400 320.400 M64.800 320.925 C 64.800 320.994,65.385 321.579,66.100 322.225 L 67.400 323.400 66.225 322.100 C 65.130 320.888,64.800 320.616,64.800 320.925 M237.200 322.125 C 237.200 322.194,237.785 322.779,238.500 323.425 L 239.800 324.600 238.625 323.300 C 237.530 322.088,237.200 321.816,237.200 322.125 M110.606 323.612 C 110.951 324.278,111.109 325.043,110.958 325.312 C 110.751 325.679,110.804 325.688,111.175 325.346 C 111.640 324.918,110.789 322.400,110.179 322.400 C 110.069 322.400,110.261 322.945,110.606 323.612 M171.964 323.335 C 172.549 324.063,174.800 325.777,174.800 325.494 C 174.800 325.406,174.035 324.726,173.100 323.983 C 172.165 323.240,171.654 322.948,171.964 323.335 M214.000 324.049 C 212.606 325.271,212.605 325.272,213.888 324.419 C 214.596 323.948,215.282 323.391,215.412 323.181 C 215.797 322.557,215.477 322.754,214.000 324.049 M108.300 326.629 C 106.805 327.440,106.896 327.778,108.400 327.000 C 109.060 326.659,109.600 326.294,109.600 326.190 C 109.600 325.932,109.557 325.947,108.300 326.629 M79.400 329.600 C 79.840 329.789,80.470 329.944,80.800 329.944 C 81.178 329.944,81.104 329.817,80.600 329.600 C 80.160 329.411,79.530 329.256,79.200 329.256 C 78.822 329.256,78.896 329.383,79.400 329.600 M100.400 329.600 C 99.596 329.857,99.557 329.923,100.200 329.932 C 100.640 329.938,101.360 329.789,101.800 329.600 C 102.819 329.162,101.768 329.162,100.400 329.600 M183.000 329.600 C 183.440 329.789,184.070 329.944,184.400 329.944 C 184.778 329.944,184.704 329.817,184.200 329.600 C 183.760 329.411,183.130 329.256,182.800 329.256 C 182.422 329.256,182.496 329.383,183.000 329.600 M203.000 329.600 C 202.496 329.817,202.422 329.944,202.800 329.944 C 203.130 329.944,203.760 329.789,204.200 329.600 C 204.704 329.383,204.778 329.256,204.400 329.256 C 204.070 329.256,203.440 329.411,203.000 329.600 M248.000 329.541 C 248.330 329.734,249.140 330.009,249.800 330.152 C 250.568 330.318,250.784 330.284,250.400 330.059 C 250.070 329.866,249.260 329.591,248.600 329.448 C 247.832 329.282,247.616 329.316,248.000 329.541 M317.300 329.476 C 317.685 329.576,318.315 329.576,318.700 329.476 C 319.085 329.375,318.770 329.293,318.000 329.293 C 317.230 329.293,316.915 329.375,317.300 329.476 M88.500 331.091 C 89.325 331.178,90.675 331.178,91.500 331.091 C 92.325 331.005,91.650 330.934,90.000 330.934 C 88.350 330.934,87.675 331.005,88.500 331.091 M192.291 331.089 C 193.001 331.177,194.261 331.179,195.091 331.092 C 195.921 331.005,195.340 330.933,193.800 330.931 C 192.260 330.929,191.581 331.000,192.291 331.089 M257.511 331.093 C 258.451 331.178,259.891 331.177,260.711 331.091 C 261.530 331.005,260.760 330.936,259.000 330.937 C 257.240 330.939,256.570 331.009,257.511 331.093 M62.500 337.100 C 72.125 337.160,87.875 337.160,97.500 337.100 C 107.125 337.040,99.250 336.991,80.000 336.991 C 60.750 336.991,52.875 337.040,62.500 337.100 M302.930 337.100 C 312.572 337.160,328.232 337.160,337.730 337.100 C 347.229 337.040,339.340 336.991,320.200 336.991 C 301.060 336.991,293.289 337.040,302.930 337.100 " stroke="none" fill="#4f6198" fill-rule="evenodd"></path><path id="path4" d="M331.701 69.000 C 331.705 69.880,331.787 70.193,331.883 69.695 C 331.979 69.198,331.975 68.478,331.875 68.095 C 331.775 67.713,331.696 68.120,331.701 69.000 M68.093 72.000 C 68.093 72.770,68.175 73.085,68.276 72.700 C 68.376 72.315,68.376 71.685,68.276 71.300 C 68.175 70.915,68.093 71.230,68.093 72.000 M332.114 73.000 C 332.117 74.100,332.195 74.503,332.287 73.895 C 332.379 73.286,332.377 72.386,332.282 71.895 C 332.187 71.403,332.111 71.900,332.114 73.000 M67.709 76.000 C 67.709 76.990,67.787 77.395,67.882 76.900 C 67.978 76.405,67.978 75.595,67.882 75.100 C 67.787 74.605,67.709 75.010,67.709 76.000 M332.509 77.200 C 332.509 78.190,332.587 78.595,332.682 78.100 C 332.778 77.605,332.778 76.795,332.682 76.300 C 332.587 75.805,332.509 76.210,332.509 77.200 M67.309 80.400 C 67.309 81.390,67.387 81.795,67.482 81.300 C 67.578 80.805,67.578 79.995,67.482 79.500 C 67.387 79.005,67.309 79.410,67.309 80.400 M334.093 95.600 C 334.093 96.370,334.175 96.685,334.276 96.300 C 334.376 95.915,334.376 95.285,334.276 94.900 C 334.175 94.515,334.093 94.830,334.093 95.600 M65.693 98.400 C 65.693 99.170,65.775 99.485,65.876 99.100 C 65.976 98.715,65.976 98.085,65.876 97.700 C 65.775 97.315,65.693 97.630,65.693 98.400 M334.501 100.200 C 334.505 101.080,334.587 101.393,334.683 100.895 C 334.779 100.398,334.775 99.678,334.675 99.295 C 334.575 98.913,334.496 99.320,334.501 100.200 M65.301 103.000 C 65.305 103.880,65.387 104.193,65.483 103.695 C 65.579 103.198,65.575 102.478,65.475 102.095 C 65.375 101.713,65.296 102.120,65.301 103.000 M334.909 104.000 C 334.909 104.990,334.987 105.395,335.082 104.900 C 335.178 104.405,335.178 103.595,335.082 103.100 C 334.987 102.605,334.909 103.010,334.909 104.000 M64.914 107.400 C 64.917 108.500,64.995 108.903,65.087 108.295 C 65.179 107.686,65.177 106.786,65.082 106.295 C 64.987 105.803,64.911 106.300,64.914 107.400 M64.501 111.400 C 64.505 112.280,64.587 112.593,64.683 112.095 C 64.779 111.598,64.775 110.878,64.675 110.495 C 64.575 110.113,64.496 110.520,64.501 111.400 M336.901 126.600 C 336.905 127.480,336.987 127.793,337.083 127.295 C 337.179 126.798,337.175 126.078,337.075 125.695 C 336.975 125.313,336.896 125.720,336.901 126.600 M337.314 131.000 C 337.317 132.100,337.395 132.503,337.487 131.895 C 337.579 131.286,337.577 130.386,337.482 129.895 C 337.387 129.403,337.311 129.900,337.314 131.000 M62.501 134.200 C 62.505 135.080,62.587 135.393,62.683 134.895 C 62.779 134.398,62.775 133.678,62.675 133.295 C 62.575 132.913,62.496 133.320,62.501 134.200 M337.714 135.400 C 337.717 136.500,337.795 136.903,337.887 136.295 C 337.979 135.686,337.977 134.786,337.882 134.295 C 337.787 133.803,337.711 134.300,337.714 135.400 M62.114 138.600 C 62.117 139.700,62.195 140.103,62.287 139.495 C 62.379 138.886,62.377 137.986,62.282 137.495 C 62.187 137.003,62.111 137.500,62.114 138.600 M339.293 153.600 C 339.293 154.370,339.375 154.685,339.476 154.300 C 339.576 153.915,339.576 153.285,339.476 152.900 C 339.375 152.515,339.293 152.830,339.293 153.600 M339.701 158.200 C 339.705 159.080,339.787 159.393,339.883 158.895 C 339.979 158.398,339.975 157.678,339.875 157.295 C 339.775 156.913,339.696 157.320,339.701 158.200 M60.093 161.200 C 60.093 161.970,60.175 162.285,60.276 161.900 C 60.376 161.515,60.376 160.885,60.276 160.500 C 60.175 160.115,60.093 160.430,60.093 161.200 M340.114 162.200 C 340.117 163.300,340.195 163.703,340.287 163.095 C 340.379 162.486,340.377 161.586,340.282 161.095 C 340.187 160.603,340.111 161.100,340.114 162.200 M59.709 165.200 C 59.709 166.190,59.787 166.595,59.882 166.100 C 59.978 165.605,59.978 164.795,59.882 164.300 C 59.787 163.805,59.709 164.210,59.709 165.200 M340.509 166.400 C 340.509 167.390,340.587 167.795,340.682 167.300 C 340.778 166.805,340.778 165.995,340.682 165.500 C 340.587 165.005,340.509 165.410,340.509 166.400 M59.309 169.600 C 59.309 170.590,59.387 170.995,59.482 170.500 C 59.578 170.005,59.578 169.195,59.482 168.700 C 59.387 168.205,59.309 168.610,59.309 169.600 M342.093 184.800 C 342.093 185.570,342.175 185.885,342.276 185.500 C 342.376 185.115,342.376 184.485,342.276 184.100 C 342.175 183.715,342.093 184.030,342.093 184.800 M57.693 187.600 C 57.693 188.370,57.775 188.685,57.876 188.300 C 57.976 187.915,57.976 187.285,57.876 186.900 C 57.775 186.515,57.693 186.830,57.693 187.600 M342.509 189.200 C 342.509 190.190,342.587 190.595,342.682 190.100 C 342.778 189.605,342.778 188.795,342.682 188.300 C 342.587 187.805,342.509 188.210,342.509 189.200 M57.301 192.200 C 57.305 193.080,57.387 193.393,57.483 192.895 C 57.579 192.398,57.575 191.678,57.475 191.295 C 57.375 190.913,57.296 191.320,57.301 192.200 M342.909 193.200 C 342.909 194.190,342.987 194.595,343.082 194.100 C 343.178 193.605,343.178 192.795,343.082 192.300 C 342.987 191.805,342.909 192.210,342.909 193.200 M126.980 194.138 C 126.850 194.654,126.817 195.779,126.905 196.638 C 127.043 197.983,127.075 197.905,127.133 196.076 C 127.173 194.794,127.357 194.050,127.595 194.197 C 127.822 194.337,127.889 194.177,127.753 193.821 C 127.426 192.970,127.255 193.040,126.980 194.138 M56.909 196.800 C 56.909 197.790,56.987 198.195,57.082 197.700 C 57.178 197.205,57.178 196.395,57.082 195.900 C 56.987 195.405,56.909 195.810,56.909 196.800 M273.301 197.000 C 273.305 197.880,273.387 198.193,273.483 197.695 C 273.579 197.198,273.575 196.478,273.475 196.095 C 273.375 195.713,273.296 196.120,273.301 197.000 M126.514 200.200 C 126.517 201.300,126.595 201.703,126.687 201.095 C 126.779 200.486,126.777 199.586,126.682 199.095 C 126.587 198.603,126.511 199.100,126.514 200.200 M56.501 200.600 C 56.505 201.480,56.587 201.793,56.683 201.295 C 56.779 200.798,56.775 200.078,56.675 199.695 C 56.575 199.313,56.496 199.720,56.501 200.600 M273.701 202.200 C 273.705 203.080,273.787 203.393,273.883 202.895 C 273.979 202.398,273.975 201.678,273.875 201.295 C 273.775 200.913,273.696 201.320,273.701 202.200 M126.101 205.400 C 126.105 206.280,126.187 206.593,126.283 206.095 C 126.379 205.598,126.375 204.878,126.275 204.495 C 126.175 204.113,126.096 204.520,126.101 205.400 M344.901 215.800 C 344.905 216.680,344.987 216.993,345.083 216.495 C 345.179 215.998,345.175 215.278,345.075 214.895 C 344.975 214.513,344.896 214.920,344.901 215.800 M274.893 218.000 C 274.893 218.770,274.975 219.085,275.076 218.700 C 275.176 218.315,275.176 217.685,275.076 217.300 C 274.975 216.915,274.893 217.230,274.893 218.000 M54.893 219.200 C 54.893 219.970,54.975 220.285,55.076 219.900 C 55.176 219.515,55.176 218.885,55.076 218.500 C 54.975 218.115,54.893 218.430,54.893 219.200 M345.309 220.400 C 345.309 221.390,345.387 221.795,345.482 221.300 C 345.578 220.805,345.578 219.995,345.482 219.500 C 345.387 219.005,345.309 219.410,345.309 220.400 M275.314 222.600 C 275.317 223.700,275.395 224.103,275.487 223.495 C 275.579 222.886,275.577 221.986,275.482 221.495 C 275.387 221.003,275.311 221.500,275.314 222.600 M54.501 223.400 C 54.505 224.280,54.587 224.593,54.683 224.095 C 54.779 223.598,54.775 222.878,54.675 222.495 C 54.575 222.113,54.496 222.520,54.501 223.400 M345.709 224.800 C 345.709 225.790,345.787 226.195,345.882 225.700 C 345.978 225.205,345.978 224.395,345.882 223.900 C 345.787 223.405,345.709 223.810,345.709 224.800 M124.509 226.000 C 124.509 226.990,124.587 227.395,124.682 226.900 C 124.778 226.405,124.778 225.595,124.682 225.100 C 124.587 224.605,124.509 225.010,124.509 226.000 M275.714 227.400 C 275.717 228.500,275.795 228.903,275.887 228.295 C 275.979 227.686,275.977 226.786,275.882 226.295 C 275.787 225.803,275.711 226.300,275.714 227.400 M54.114 227.800 C 54.117 228.900,54.195 229.303,54.287 228.695 C 54.379 228.086,54.377 227.186,54.282 226.695 C 54.187 226.203,54.111 226.700,54.114 227.800 M139.029 226.800 C 139.176 227.350,139.464 228.070,139.667 228.400 C 139.925 228.817,139.957 228.695,139.771 228.000 C 139.624 227.450,139.336 226.730,139.133 226.400 C 138.875 225.983,138.843 226.105,139.029 226.800 M124.120 230.800 C 124.120 232.010,124.195 232.505,124.287 231.900 C 124.378 231.295,124.378 230.305,124.287 229.700 C 124.195 229.095,124.120 229.590,124.120 230.800 M276.093 232.000 C 276.093 232.770,276.175 233.085,276.276 232.700 C 276.376 232.315,276.376 231.685,276.276 231.300 C 276.175 230.915,276.093 231.230,276.093 232.000 M123.709 235.200 C 123.709 236.190,123.787 236.595,123.882 236.100 C 123.978 235.605,123.978 234.795,123.882 234.300 C 123.787 233.805,123.709 234.210,123.709 235.200 M141.829 234.800 C 141.976 235.350,142.264 236.070,142.467 236.400 C 142.725 236.817,142.757 236.695,142.571 236.000 C 142.424 235.450,142.136 234.730,141.933 234.400 C 141.675 233.983,141.643 234.105,141.829 234.800 M123.293 240.400 C 123.293 241.170,123.375 241.485,123.476 241.100 C 123.576 240.715,123.576 240.085,123.476 239.700 C 123.375 239.315,123.293 239.630,123.293 240.400 M347.293 242.800 C 347.293 243.570,347.375 243.885,347.476 243.500 C 347.576 243.115,347.576 242.485,347.476 242.100 C 347.375 241.715,347.293 242.030,347.293 242.800 M122.893 246.000 C 122.893 246.770,122.975 247.085,123.076 246.700 C 123.176 246.315,123.176 245.685,123.076 245.300 C 122.975 244.915,122.893 245.230,122.893 246.000 M347.701 247.400 C 347.705 248.280,347.787 248.593,347.883 248.095 C 347.979 247.598,347.975 246.878,347.875 246.495 C 347.775 246.113,347.696 246.520,347.701 247.400 M52.093 250.400 C 52.093 251.170,52.175 251.485,52.276 251.100 C 52.376 250.715,52.376 250.085,52.276 249.700 C 52.175 249.315,52.093 249.630,52.093 250.400 M348.114 251.400 C 348.117 252.500,348.195 252.903,348.287 252.295 C 348.379 251.686,348.377 250.786,348.282 250.295 C 348.187 249.803,348.111 250.300,348.114 251.400 M147.429 250.800 C 147.576 251.350,147.864 252.070,148.067 252.400 C 148.325 252.817,148.357 252.695,148.171 252.000 C 148.024 251.450,147.736 250.730,147.533 250.400 C 147.275 249.983,147.243 250.105,147.429 250.800 M252.044 252.044 C 251.798 252.751,251.666 253.400,251.752 253.485 C 251.838 253.571,252.109 253.062,252.356 252.356 C 252.602 251.649,252.734 251.000,252.648 250.915 C 252.562 250.829,252.291 251.338,252.044 252.044 M51.709 254.400 C 51.709 255.390,51.787 255.795,51.882 255.300 C 51.978 254.805,51.978 253.995,51.882 253.500 C 51.787 253.005,51.709 253.410,51.709 254.400 M348.501 255.800 C 348.505 256.680,348.587 256.993,348.683 256.495 C 348.779 255.998,348.775 255.278,348.675 254.895 C 348.575 254.513,348.496 254.920,348.501 255.800 M278.067 257.282 L 278.000 259.165 275.100 259.303 L 272.200 259.441 275.113 259.521 C 278.377 259.610,278.555 259.466,278.294 256.942 C 278.141 255.463,278.132 255.478,278.067 257.282 M51.309 258.800 C 51.309 259.790,51.387 260.195,51.482 259.700 C 51.578 259.205,51.578 258.395,51.482 257.900 C 51.387 257.405,51.309 257.810,51.309 258.800 M121.958 259.320 C 122.135 259.495,123.521 259.584,125.040 259.516 L 127.800 259.392 124.718 259.196 C 123.023 259.088,121.781 259.144,121.958 259.320 M88.512 262.295 C 89.564 262.377,91.184 262.376,92.112 262.292 C 93.040 262.208,92.180 262.141,90.200 262.142 C 88.220 262.143,87.460 262.212,88.512 262.295 M191.900 262.293 C 192.835 262.377,194.365 262.377,195.300 262.293 C 196.235 262.209,195.470 262.140,193.600 262.140 C 191.730 262.140,190.965 262.209,191.900 262.293 M252.140 266.000 C 252.140 267.870,252.209 268.635,252.293 267.700 C 252.377 266.765,252.377 265.235,252.293 264.300 C 252.209 263.365,252.140 264.130,252.140 266.000 M117.391 296.600 C 117.391 314.860,117.440 322.388,117.500 313.330 C 117.560 304.271,117.560 289.331,117.500 280.130 C 117.440 270.928,117.391 278.340,117.391 296.600 M232.987 286.600 C 232.987 299.360,233.038 304.638,233.100 298.329 C 233.162 292.019,233.162 281.579,233.100 275.129 C 233.038 268.678,232.987 273.840,232.987 286.600 M293.791 296.800 C 293.791 315.170,293.840 322.685,293.900 313.500 C 293.960 304.315,293.960 289.285,293.900 280.100 C 293.840 270.915,293.791 278.430,293.791 296.800 M216.800 271.800 C 217.995 273.010,219.063 274.000,219.173 274.000 C 219.283 274.000,218.395 273.010,217.200 271.800 C 216.005 270.590,214.937 269.600,214.827 269.600 C 214.717 269.600,215.605 270.590,216.800 271.800 M336.000 272.125 C 336.000 272.194,336.585 272.779,337.300 273.425 L 338.600 274.600 337.425 273.300 C 336.330 272.088,336.000 271.816,336.000 272.125 M350.093 274.000 C 350.093 274.770,350.175 275.085,350.276 274.700 C 350.376 274.315,350.376 273.685,350.276 273.300 C 350.175 272.915,350.093 273.230,350.093 274.000 M49.693 276.800 C 49.693 277.570,49.775 277.885,49.876 277.500 C 49.976 277.115,49.976 276.485,49.876 276.100 C 49.775 275.715,49.693 276.030,49.693 276.800 M192.707 277.090 C 193.426 277.179,194.506 277.177,195.107 277.086 C 195.708 276.995,195.120 276.922,193.800 276.924 C 192.480 276.926,191.988 277.001,192.707 277.090 M350.501 278.600 C 350.505 279.480,350.587 279.793,350.683 279.295 C 350.779 278.798,350.775 278.078,350.675 277.695 C 350.575 277.313,350.496 277.720,350.501 278.600 M49.301 281.400 C 49.305 282.280,49.387 282.593,49.483 282.095 C 49.579 281.598,49.575 280.878,49.475 280.495 C 49.375 280.113,49.296 280.520,49.301 281.400 M350.909 282.400 C 350.909 283.390,350.987 283.795,351.082 283.300 C 351.178 282.805,351.178 281.995,351.082 281.500 C 350.987 281.005,350.909 281.410,350.909 282.400 M48.914 285.800 C 48.917 286.900,48.995 287.303,49.087 286.695 C 49.179 286.086,49.177 285.186,49.082 284.695 C 48.987 284.203,48.911 284.700,48.914 285.800 M54.629 288.629 C 54.481 289.215,54.438 289.772,54.532 289.866 C 54.627 289.960,54.824 289.558,54.971 288.971 C 55.119 288.385,55.162 287.828,55.068 287.734 C 54.973 287.640,54.776 288.042,54.629 288.629 M48.501 289.800 C 48.505 290.680,48.587 290.993,48.683 290.495 C 48.779 289.998,48.775 289.278,48.675 288.895 C 48.575 288.513,48.496 288.920,48.501 289.800 M156.446 291.667 C 156.421 292.034,156.296 292.664,156.170 293.067 C 155.952 293.762,155.963 293.763,156.397 293.087 C 156.648 292.696,156.773 292.066,156.673 291.687 C 156.511 291.068,156.488 291.066,156.446 291.667 M160.146 296.600 C 160.147 298.800,160.214 299.649,160.295 298.487 C 160.376 297.324,160.376 295.524,160.293 294.487 C 160.211 293.449,160.145 294.400,160.146 296.600 M70.493 294.400 C 70.493 295.170,70.575 295.485,70.676 295.100 C 70.776 294.715,70.776 294.085,70.676 293.700 C 70.575 293.315,70.493 293.630,70.493 294.400 M53.734 296.800 C 53.734 298.450,53.805 299.125,53.891 298.300 C 53.978 297.475,53.978 296.125,53.891 295.300 C 53.805 294.475,53.734 295.150,53.734 296.800 M210.534 296.800 C 210.534 298.450,210.605 299.125,210.691 298.300 C 210.778 297.475,210.778 296.125,210.691 295.300 C 210.605 294.475,210.534 295.150,210.534 296.800 M176.528 296.800 C 176.528 298.230,176.601 298.815,176.689 298.100 C 176.778 297.385,176.778 296.215,176.689 295.500 C 176.601 294.785,176.528 295.370,176.528 296.800 M330.120 296.800 C 330.120 298.010,330.195 298.505,330.287 297.900 C 330.378 297.295,330.378 296.305,330.287 295.700 C 330.195 295.095,330.120 295.590,330.120 296.800 M70.493 299.200 C 70.493 299.970,70.575 300.285,70.676 299.900 C 70.776 299.515,70.776 298.885,70.676 298.500 C 70.575 298.115,70.493 298.430,70.493 299.200 M352.893 305.200 C 352.893 305.970,352.975 306.285,353.076 305.900 C 353.176 305.515,353.176 304.885,353.076 304.500 C 352.975 304.115,352.893 304.430,352.893 305.200 M46.893 308.400 C 46.893 309.170,46.975 309.485,47.076 309.100 C 47.176 308.715,47.176 308.085,47.076 307.700 C 46.975 307.315,46.893 307.630,46.893 308.400 M284.893 308.400 C 284.893 309.170,284.975 309.485,285.076 309.100 C 285.176 308.715,285.176 308.085,285.076 307.700 C 284.975 307.315,284.893 307.630,284.893 308.400 M353.309 309.600 C 353.309 310.590,353.387 310.995,353.482 310.500 C 353.578 310.005,353.578 309.195,353.482 308.700 C 353.387 308.205,353.309 308.610,353.309 309.600 M57.000 311.200 C 57.341 311.860,57.711 312.400,57.821 312.400 C 57.931 312.400,57.741 311.860,57.400 311.200 C 57.059 310.540,56.689 310.000,56.579 310.000 C 56.469 310.000,56.659 310.540,57.000 311.200 M46.509 312.400 C 46.509 313.390,46.587 313.795,46.682 313.300 C 46.778 312.805,46.778 311.995,46.682 311.500 C 46.587 311.005,46.509 311.410,46.509 312.400 M353.709 314.000 C 353.709 314.990,353.787 315.395,353.882 314.900 C 353.978 314.405,353.978 313.595,353.882 313.100 C 353.787 312.605,353.709 313.010,353.709 314.000 M46.114 317.000 C 46.117 318.100,46.195 318.503,46.287 317.895 C 46.379 317.286,46.377 316.386,46.282 315.895 C 46.187 315.403,46.111 315.900,46.114 317.000 M91.100 316.282 C 91.595 316.378,92.405 316.378,92.900 316.282 C 93.395 316.187,92.990 316.109,92.000 316.109 C 91.010 316.109,90.605 316.187,91.100 316.282 M190.500 316.276 C 190.885 316.376,191.515 316.376,191.900 316.276 C 192.285 316.175,191.970 316.093,191.200 316.093 C 190.430 316.093,190.115 316.175,190.500 316.276 M195.300 316.276 C 195.685 316.376,196.315 316.376,196.700 316.276 C 197.085 316.175,196.770 316.093,196.000 316.093 C 195.230 316.093,194.915 316.175,195.300 316.276 M258.305 316.283 C 258.802 316.379,259.522 316.375,259.905 316.275 C 260.287 316.175,259.880 316.096,259.000 316.101 C 258.120 316.105,257.807 316.187,258.305 316.283 M310.291 316.289 C 311.001 316.377,312.261 316.379,313.091 316.292 C 313.921 316.205,313.340 316.133,311.800 316.131 C 310.260 316.129,309.581 316.200,310.291 316.289 M138.524 316.699 C 141.783 316.767,147.003 316.766,150.124 316.699 C 153.246 316.631,150.580 316.576,144.200 316.577 C 137.820 316.577,135.266 316.632,138.524 316.699 M168.000 319.725 C 168.000 319.794,168.585 320.379,169.300 321.025 L 170.600 322.200 169.425 320.900 C 168.330 319.688,168.000 319.416,168.000 319.725 M228.044 320.844 C 227.798 321.551,227.666 322.200,227.752 322.285 C 227.838 322.371,228.109 321.862,228.356 321.156 C 228.602 320.449,228.734 319.800,228.648 319.715 C 228.562 319.629,228.291 320.138,228.044 320.844 M216.975 321.700 L 215.800 323.000 217.100 321.825 C 217.815 321.179,218.400 320.594,218.400 320.525 C 218.400 320.216,218.070 320.488,216.975 321.700 M239.200 324.600 C 239.946 325.370,240.647 326.000,240.757 326.000 C 240.867 326.000,240.346 325.370,239.600 324.600 C 238.854 323.830,238.153 323.200,238.043 323.200 C 237.933 323.200,238.454 323.830,239.200 324.600 M278.575 324.500 L 277.400 325.800 278.700 324.625 C 279.415 323.979,280.000 323.394,280.000 323.325 C 280.000 323.016,279.670 323.288,278.575 324.500 M283.714 327.800 C 283.717 328.900,283.795 329.303,283.887 328.695 C 283.979 328.086,283.977 327.186,283.882 326.695 C 283.787 326.203,283.711 326.700,283.714 327.800 M225.644 327.644 C 225.398 328.351,225.266 329.000,225.352 329.085 C 225.438 329.171,225.709 328.662,225.956 327.956 C 226.202 327.249,226.334 326.600,226.248 326.515 C 226.162 326.429,225.891 326.938,225.644 327.644 M284.101 332.200 C 284.105 333.080,284.187 333.393,284.283 332.895 C 284.379 332.398,284.375 331.678,284.275 331.295 C 284.175 330.913,284.096 331.320,284.101 332.200 M355.293 332.000 C 355.293 332.770,355.375 333.085,355.476 332.700 C 355.576 332.315,355.576 331.685,355.476 331.300 C 355.375 330.915,355.293 331.230,355.293 332.000 M115.756 334.171 C 115.635 334.485,115.604 335.160,115.686 335.671 C 115.795 336.354,115.888 336.204,116.037 335.100 C 116.247 333.547,116.136 333.181,115.756 334.171 M118.300 333.889 C 119.015 333.978,120.185 333.978,120.900 333.889 C 121.615 333.801,121.030 333.728,119.600 333.728 C 118.170 333.728,117.585 333.801,118.300 333.889 M189.328 335.500 C 195.449 335.562,205.349 335.562,211.328 335.500 C 217.308 335.437,212.300 335.387,200.200 335.387 C 188.100 335.387,183.208 335.438,189.328 335.500 " stroke="none" fill="#5c5c5c" fill-rule="evenodd"></path></g></svg>